# MagicaVoxel @ Ephtracy

# group
g Green block 2

# material
mtllib Green block 2.mtl
usemtl palette

# normals
vn -1 0 0
vn 1 0 0
vn 0 0 1
vn 0 0 -1
vn 0 -1 0
vn 0 1 0

# texcoords
vt 0.427734 0.5
vt 0.490234 0.5

# verts
v -5 0 5
v -5 0 -5
v -5 1 4
v -5 1 3
v -5 1 1
v -5 1 -0
v -5 2 4
v -5 2 3
v -5 2 1
v -5 2 -0
v -5 2 -2
v -5 2 -3
v -5 3 -2
v -5 3 -3
v -5 4 -0
v -5 4 -1
v -5 6 4
v -5 6 1
v -5 6 -0
v -5 6 -1
v -5 7 4
v -5 7 1
v -5 8 -2
v -5 8 -3
v -5 9 -2
v -5 9 -3
v -5 10 5
v -5 10 -5
v 5 0 5
v 5 0 -2
v 5 0 -5
v 5 2 3
v 5 2 2
v 5 2 1
v 5 2 -0
v 5 2 -2
v 5 2 -5
v 5 3 2
v 5 3 1
v 5 4 4
v 5 4 3
v 5 4 -0
v 5 4 -2
v 5 5 -2
v 5 5 -3
v 5 6 2
v 5 6 -3
v 5 7 3
v 5 7 2
v 5 8 4
v 5 8 3
v 5 10 5
v 5 10 -5
v -5 0 5
v -5 10 5
v 5 0 5
v 5 10 5
v -5 0 -5
v -5 10 -5
v -4 8 -5
v -4 9 -5
v -3 4 -5
v -3 5 -5
v -3 8 -5
v -3 9 -5
v -2 2 -5
v -2 3 -5
v -2 4 -5
v -2 5 -5
v -2 7 -5
v -2 8 -5
v -1 2 -5
v -1 3 -5
v -1 7 -5
v -1 8 -5
v 0 5 -5
v 0 6 -5
v 1 2 -5
v 1 3 -5
v 1 5 -5
v 1 6 -5
v 2 2 -5
v 2 3 -5
v 3 0 -5
v 3 1 -5
v 3 5 -5
v 3 6 -5
v 3 8 -5
v 3 9 -5
v 4 1 -5
v 4 2 -5
v 4 5 -5
v 4 6 -5
v 4 8 -5
v 4 9 -5
v 5 0 -5
v 5 2 -5
v 5 10 -5
v -5 0 5
v 5 0 5
v -2 0 4
v -1 0 4
v -2 0 3
v -1 0 3
v 1 0 2
v 3 0 2
v 1 0 1
v 3 0 1
v 0 0 -0
v 2 0 -0
v -3 0 -1
v 0 0 -1
v 2 0 -1
v 4 0 -2
v 5 0 -2
v -3 0 -3
v 0 0 -3
v 3 0 -4
v 4 0 -4
v -5 0 -5
v 3 0 -5
v 5 0 -5
v -5 10 5
v 5 10 5
v -2 10 4
v 1 10 4
v -4 10 3
v -3 10 3
v -2 10 3
v 1 10 3
v -4 10 2
v -3 10 2
v 0 10 1
v 2 10 1
v 0 10 -0
v 2 10 -0
v 2 10 -1
v 3 10 -1
v -3 10 -2
v 0 10 -2
v 2 10 -2
v 3 10 -2
v -3 10 -3
v -2 10 -3
v -2 10 -4
v 0 10 -4
v -5 10 -5
v 5 10 -5

# faces
f 3/2/1 2/2/1 1/2/1
f 4/2/1 2/2/1 3/2/1
f 5/2/1 2/2/1 4/2/1
f 6/2/1 2/2/1 5/2/1
f 7/2/1 3/2/1 1/2/1
f 7/1/1 4/1/1 3/1/1
f 8/2/1 5/2/1 4/2/1
f 8/1/1 4/1/1 7/1/1
f 9/1/1 6/1/1 5/1/1
f 9/2/1 5/2/1 8/2/1
f 10/2/1 2/2/1 6/2/1
f 10/1/1 6/1/1 9/1/1
f 11/2/1 2/2/1 10/2/1
f 12/2/1 2/2/1 11/2/1
f 13/2/1 9/2/1 8/2/1
f 13/2/1 8/2/1 7/2/1
f 13/1/1 12/1/1 11/1/1
f 13/2/1 11/2/1 10/2/1
f 13/2/1 10/2/1 9/2/1
f 14/2/1 2/2/1 12/2/1
f 14/1/1 12/1/1 13/1/1
f 15/2/1 13/2/1 7/2/1
f 15/2/1 14/2/1 13/2/1
f 16/2/1 14/2/1 15/2/1
f 17/2/1 7/2/1 1/2/1
f 17/2/1 15/2/1 7/2/1
f 18/2/1 15/2/1 17/2/1
f 19/1/1 16/1/1 15/1/1
f 19/2/1 15/2/1 18/2/1
f 20/2/1 14/2/1 16/2/1
f 20/1/1 16/1/1 19/1/1
f 21/1/1 18/1/1 17/1/1
f 21/2/1 17/2/1 1/2/1
f 22/2/1 19/2/1 18/2/1
f 22/1/1 18/1/1 21/1/1
f 22/2/1 20/2/1 19/2/1
f 23/2/1 14/2/1 20/2/1
f 23/2/1 20/2/1 22/2/1
f 23/2/1 22/2/1 21/2/1
f 24/2/1 2/2/1 14/2/1
f 24/2/1 14/2/1 23/2/1
f 25/2/1 23/2/1 21/2/1
f 25/1/1 24/1/1 23/1/1
f 26/2/1 2/2/1 24/2/1
f 26/1/1 24/1/1 25/1/1
f 27/2/1 25/2/1 21/2/1
f 27/2/1 21/2/1 1/2/1
f 27/2/1 26/2/1 25/2/1
f 28/2/1 2/2/1 26/2/1
f 28/2/1 26/2/1 27/2/1
f 29/2/2 30/2/2 32/2/2
f 32/2/2 30/2/2 33/2/2
f 33/2/2 30/2/2 34/2/2
f 34/2/2 30/2/2 35/2/2
f 30/1/2 31/1/2 36/1/2
f 35/2/2 30/2/2 36/2/2
f 36/1/2 31/1/2 37/1/2
f 32/1/2 33/1/2 38/1/2
f 33/2/2 34/2/2 38/2/2
f 34/1/2 35/1/2 39/1/2
f 38/2/2 34/2/2 39/2/2
f 29/2/2 32/2/2 40/2/2
f 32/1/2 38/1/2 41/1/2
f 40/2/2 32/2/2 41/2/2
f 38/1/2 39/1/2 41/1/2
f 39/1/2 35/1/2 42/1/2
f 41/1/2 39/1/2 42/1/2
f 36/2/2 37/2/2 42/2/2
f 35/2/2 36/2/2 42/2/2
f 42/2/2 37/2/2 43/2/2
f 40/1/2 41/1/2 44/1/2
f 43/2/2 37/2/2 44/2/2
f 42/1/2 43/1/2 44/1/2
f 41/1/2 42/1/2 44/1/2
f 44/2/2 37/2/2 45/2/2
f 40/1/2 44/1/2 46/1/2
f 44/1/2 45/1/2 46/1/2
f 45/2/2 37/2/2 47/2/2
f 46/1/2 45/1/2 47/1/2
f 40/1/2 46/1/2 48/1/2
f 46/2/2 47/2/2 49/2/2
f 48/1/2 46/1/2 49/1/2
f 29/2/2 40/2/2 50/2/2
f 40/1/2 48/1/2 50/1/2
f 48/2/2 49/2/2 51/2/2
f 50/1/2 48/1/2 51/1/2
f 29/2/2 50/2/2 52/2/2
f 50/2/2 51/2/2 52/2/2
f 49/2/2 47/2/2 53/2/2
f 52/2/2 51/2/2 53/2/2
f 47/2/2 37/2/2 53/2/2
f 51/2/2 49/2/2 53/2/2
f 56/2/3 55/2/3 54/2/3
f 57/2/3 55/2/3 56/2/3
f 58/2/4 59/2/4 60/2/4
f 60/2/4 59/2/4 61/2/4
f 58/2/4 60/2/4 62/2/4
f 62/2/4 60/2/4 63/2/4
f 60/1/4 61/1/4 64/1/4
f 63/2/4 60/2/4 64/2/4
f 61/2/4 59/2/4 65/2/4
f 64/1/4 61/1/4 65/1/4
f 58/2/4 62/2/4 66/2/4
f 66/2/4 62/2/4 67/2/4
f 62/1/4 63/1/4 68/1/4
f 67/2/4 62/2/4 68/2/4
f 63/2/4 64/2/4 69/2/4
f 68/1/4 63/1/4 69/1/4
f 64/2/4 65/2/4 69/2/4
f 69/2/4 65/2/4 70/2/4
f 70/2/4 65/2/4 71/2/4
f 66/1/4 67/1/4 72/1/4
f 58/2/4 66/2/4 72/2/4
f 67/2/4 68/2/4 73/2/4
f 72/1/4 67/1/4 73/1/4
f 68/2/4 69/2/4 73/2/4
f 69/2/4 70/2/4 73/2/4
f 70/1/4 71/1/4 74/1/4
f 73/2/4 70/2/4 74/2/4
f 71/2/4 65/2/4 75/2/4
f 74/1/4 71/1/4 75/1/4
f 73/2/4 74/2/4 76/2/4
f 72/2/4 73/2/4 76/2/4
f 74/2/4 75/2/4 76/2/4
f 76/2/4 75/2/4 77/2/4
f 58/2/4 72/2/4 78/2/4
f 72/2/4 76/2/4 78/2/4
f 78/2/4 76/2/4 79/2/4
f 76/1/4 77/1/4 80/1/4
f 79/2/4 76/2/4 80/2/4
f 77/2/4 75/2/4 81/2/4
f 80/1/4 77/1/4 81/1/4
f 78/1/4 79/1/4 82/1/4
f 58/2/4 78/2/4 82/2/4
f 79/2/4 80/2/4 83/2/4
f 82/1/4 79/1/4 83/1/4
f 80/2/4 81/2/4 83/2/4
f 58/2/4 82/2/4 84/2/4
f 82/2/4 83/2/4 84/2/4
f 84/2/4 83/2/4 85/2/4
f 83/2/4 81/2/4 86/2/4
f 85/2/4 83/2/4 86/2/4
f 81/2/4 75/2/4 87/2/4
f 86/2/4 81/2/4 87/2/4
f 75/2/4 65/2/4 88/2/4
f 87/2/4 75/2/4 88/2/4
f 65/2/4 59/2/4 89/2/4
f 88/2/4 65/2/4 89/2/4
f 84/1/4 85/1/4 90/1/4
f 85/2/4 86/2/4 90/2/4
f 90/2/4 86/2/4 91/2/4
f 86/1/4 87/1/4 92/1/4
f 91/2/4 86/2/4 92/2/4
f 87/2/4 88/2/4 93/2/4
f 92/1/4 87/1/4 93/1/4
f 88/1/4 89/1/4 94/1/4
f 93/2/4 88/2/4 94/2/4
f 89/2/4 59/2/4 95/2/4
f 94/1/4 89/1/4 95/1/4
f 90/1/4 91/1/4 96/1/4
f 84/1/4 90/1/4 96/1/4
f 93/2/4 94/2/4 97/2/4
f 96/1/4 91/1/4 97/1/4
f 91/2/4 92/2/4 97/2/4
f 94/2/4 95/2/4 97/2/4
f 92/2/4 93/2/4 97/2/4
f 95/2/4 59/2/4 98/2/4
f 97/2/4 95/2/4 98/2/4
f 101/2/5 100/2/5 99/2/5
f 102/2/5 100/2/5 101/2/5
f 103/2/5 101/2/5 99/2/5
f 103/1/5 102/1/5 101/1/5
f 104/2/5 100/2/5 102/2/5
f 104/1/5 102/1/5 103/1/5
f 105/2/5 104/2/5 103/2/5
f 105/2/5 100/2/5 104/2/5
f 106/2/5 100/2/5 105/2/5
f 107/2/5 105/2/5 103/2/5
f 107/1/5 106/1/5 105/1/5
f 108/2/5 100/2/5 106/2/5
f 108/1/5 106/1/5 107/1/5
f 109/2/5 107/2/5 103/2/5
f 109/2/5 108/2/5 107/2/5
f 110/2/5 108/2/5 109/2/5
f 111/2/5 103/2/5 99/2/5
f 111/2/5 109/2/5 103/2/5
f 112/1/5 110/1/5 109/1/5
f 112/2/5 109/2/5 111/2/5
f 113/2/5 108/2/5 110/2/5
f 113/1/5 110/1/5 112/1/5
f 114/2/5 100/2/5 108/2/5
f 114/2/5 108/2/5 113/2/5
f 114/2/5 113/2/5 112/2/5
f 115/2/5 100/2/5 114/2/5
f 116/1/5 112/1/5 111/1/5
f 116/2/5 111/2/5 99/2/5
f 117/2/5 114/2/5 112/2/5
f 117/1/5 112/1/5 116/1/5
f 118/2/5 117/2/5 116/2/5
f 118/2/5 114/2/5 117/2/5
f 119/1/5 115/1/5 114/1/5
f 119/2/5 114/2/5 118/2/5
f 120/2/5 118/2/5 116/2/5
f 120/2/5 116/2/5 99/2/5
f 121/1/5 119/1/5 118/1/5
f 121/2/5 118/2/5 120/2/5
f 122/1/5 115/1/5 119/1/5
f 122/1/5 119/1/5 121/1/5
f 123/2/6 124/2/6 125/2/6
f 125/2/6 124/2/6 126/2/6
f 123/2/6 125/2/6 127/2/6
f 127/2/6 125/2/6 128/2/6
f 125/1/6 126/1/6 129/1/6
f 128/2/6 125/2/6 129/2/6
f 126/2/6 124/2/6 130/2/6
f 129/1/6 126/1/6 130/1/6
f 127/1/6 128/1/6 131/1/6
f 123/2/6 127/2/6 131/2/6
f 128/2/6 129/2/6 132/2/6
f 131/1/6 128/1/6 132/1/6
f 129/2/6 130/2/6 132/2/6
f 131/2/6 132/2/6 133/2/6
f 132/2/6 130/2/6 133/2/6
f 130/2/6 124/2/6 134/2/6
f 133/2/6 130/2/6 134/2/6
f 131/2/6 133/2/6 135/2/6
f 133/1/6 134/1/6 135/1/6
f 134/2/6 124/2/6 136/2/6
f 135/1/6 134/1/6 136/1/6
f 135/2/6 136/2/6 137/2/6
f 136/2/6 124/2/6 137/2/6
f 137/2/6 124/2/6 138/2/6
f 131/2/6 135/2/6 139/2/6
f 135/2/6 137/2/6 139/2/6
f 139/2/6 137/2/6 140/2/6
f 137/1/6 138/1/6 141/1/6
f 140/2/6 137/2/6 141/2/6
f 138/2/6 124/2/6 142/2/6
f 141/1/6 138/1/6 142/1/6
f 139/1/6 140/1/6 143/1/6
f 131/2/6 139/2/6 143/2/6
f 143/1/6 140/1/6 144/1/6
f 143/2/6 144/2/6 145/2/6
f 144/1/6 140/1/6 145/1/6
f 140/2/6 141/2/6 146/2/6
f 145/1/6 140/1/6 146/1/6
f 141/2/6 142/2/6 146/2/6
f 123/2/6 131/2/6 147/2/6
f 143/2/6 145/2/6 147/2/6
f 145/2/6 146/2/6 147/2/6
f 131/2/6 143/2/6 147/2/6
f 146/2/6 142/2/6 148/2/6
f 147/2/6 146/2/6 148/2/6
f 142/2/6 124/2/6 148/2/6
