# MagicaVoxel @ Ephtracy

# group
g Green block 1

# material
mtllib Green block 1.mtl
usemtl palette

# normals
vn -1 0 0
vn 1 0 0
vn 0 0 1
vn 0 0 -1
vn 0 -1 0
vn 0 1 0

# texcoords
vt 0.427734 0.5
vt 0.490234 0.5
vt 0.505859 0.5
vt 0.521484 0.5

# verts
v -5 0 5
v -5 0 -5
v -5 1 4
v -5 1 -4
v -5 2 -3
v -5 2 -4
v -5 3 1
v -5 3 -0
v -5 3 -3
v -5 3 -4
v -5 4 1
v -5 4 -0
v -5 5 -1
v -5 5 -2
v -5 6 -1
v -5 6 -2
v -5 7 3
v -5 7 2
v -5 7 -1
v -5 7 -2
v -5 8 3
v -5 8 2
v -5 8 -1
v -5 8 -2
v -5 9 4
v -5 9 -4
v -5 10 5
v -5 10 -5
v 5 0 5
v 5 0 -5
v 5 1 4
v 5 1 -4
v 5 9 4
v 5 9 -4
v 5 10 5
v 5 10 -5
v -5 0 5
v -5 10 5
v -4 1 5
v -4 3 5
v -4 8 5
v -4 9 5
v -3 1 5
v -3 3 5
v -3 8 5
v -3 9 5
v -2 6 5
v -2 8 5
v -1 3 5
v -1 4 5
v 0 2 5
v 0 3 5
v 0 4 5
v 0 6 5
v 0 7 5
v 1 7 5
v 1 8 5
v 3 1 5
v 3 2 5
v 3 3 5
v 4 1 5
v 4 2 5
v 4 9 5
v 5 0 5
v 5 10 5
v -5 0 -5
v -5 10 -5
v -4 1 -5
v -4 9 -5
v -2 3 -5
v -2 4 -5
v -2 6 -5
v -2 7 -5
v -1 3 -5
v -1 4 -5
v 0 6 -5
v 0 7 -5
v 1 6 -5
v 1 7 -5
v 2 1 -5
v 2 3 -5
v 2 6 -5
v 2 7 -5
v 2 8 -5
v 3 1 -5
v 3 3 -5
v 3 7 -5
v 3 8 -5
v 4 1 -5
v 4 9 -5
v 5 0 -5
v 5 10 -5
v -5 0 5
v 5 0 5
v -4 0 4
v 4 0 4
v -1 0 3
v 1 0 3
v -1 0 2
v 1 0 2
v -1 0 -2
v 1 0 -2
v -1 0 -3
v 1 0 -3
v -4 0 -4
v 4 0 -4
v -5 0 -5
v 5 0 -5
v -5 10 5
v 5 10 5
v -4 10 4
v 4 10 4
v -1 10 3
v 1 10 3
v -1 10 2
v 1 10 2
v -3 10 -0
v -2 10 -0
v 2 10 -0
v 3 10 -0
v -3 10 -1
v -2 10 -1
v 2 10 -1
v 3 10 -1
v -3 10 -2
v -2 10 -2
v -1 10 -2
v 1 10 -2
v -3 10 -3
v -2 10 -3
v -1 10 -3
v 1 10 -3
v -4 10 -4
v 4 10 -4
v -5 10 -5
v 5 10 -5

# faces
f 3/2/1 2/2/1 1/2/1
f 4/2/1 2/2/1 3/2/1
f 5/4/1 4/4/1 3/4/1
f 6/2/1 2/2/1 4/2/1
f 6/4/1 4/4/1 5/4/1
f 7/4/1 5/4/1 3/4/1
f 8/4/1 5/4/1 7/4/1
f 9/1/1 6/1/1 5/1/1
f 9/4/1 5/4/1 8/4/1
f 10/2/1 2/2/1 6/2/1
f 10/1/1 6/1/1 9/1/1
f 11/1/1 8/1/1 7/1/1
f 11/4/1 7/4/1 3/4/1
f 12/4/1 9/4/1 8/4/1
f 12/1/1 8/1/1 11/1/1
f 12/4/1 10/4/1 9/4/1
f 13/4/1 12/4/1 11/4/1
f 13/4/1 10/4/1 12/4/1
f 14/4/1 10/4/1 13/4/1
f 15/4/1 13/4/1 11/4/1
f 15/1/1 14/1/1 13/1/1
f 16/4/1 10/4/1 14/4/1
f 16/1/1 14/1/1 15/1/1
f 17/4/1 11/4/1 3/4/1
f 17/4/1 15/4/1 11/4/1
f 17/4/1 16/4/1 15/4/1
f 18/4/1 16/4/1 17/4/1
f 19/4/1 16/4/1 18/4/1
f 20/4/1 10/4/1 16/4/1
f 20/4/1 16/4/1 19/4/1
f 21/4/1 17/4/1 3/4/1
f 21/1/1 18/1/1 17/1/1
f 22/4/1 19/4/1 18/4/1
f 22/1/1 18/1/1 21/1/1
f 23/1/1 20/1/1 19/1/1
f 23/4/1 19/4/1 22/4/1
f 24/4/1 10/4/1 20/4/1
f 24/1/1 20/1/1 23/1/1
f 25/2/1 3/2/1 1/2/1
f 25/4/1 21/4/1 3/4/1
f 25/4/1 24/4/1 23/4/1
f 25/4/1 22/4/1 21/4/1
f 25/4/1 23/4/1 22/4/1
f 26/4/1 10/4/1 24/4/1
f 26/4/1 24/4/1 25/4/1
f 26/2/1 2/2/1 10/2/1
f 27/2/1 25/2/1 1/2/1
f 27/2/1 26/2/1 25/2/1
f 28/2/1 2/2/1 26/2/1
f 28/2/1 26/2/1 27/2/1
f 29/2/2 30/2/2 31/2/2
f 31/2/2 30/2/2 32/2/2
f 29/2/2 31/2/2 33/2/2
f 31/4/2 32/4/2 33/4/2
f 32/2/2 30/2/2 34/2/2
f 33/4/2 32/4/2 34/4/2
f 29/2/2 33/2/2 35/2/2
f 33/2/2 34/2/2 35/2/2
f 34/2/2 30/2/2 36/2/2
f 35/2/2 34/2/2 36/2/2
f 39/2/3 38/2/3 37/2/3
f 40/2/3 38/2/3 39/2/3
f 41/2/3 38/2/3 40/2/3
f 42/2/3 38/2/3 41/2/3
f 43/2/3 39/2/3 37/2/3
f 43/1/3 40/1/3 39/1/3
f 44/4/3 41/4/3 40/4/3
f 44/1/3 40/1/3 43/1/3
f 45/1/3 42/1/3 41/1/3
f 45/4/3 41/4/3 44/4/3
f 46/2/3 38/2/3 42/2/3
f 46/1/3 42/1/3 45/1/3
f 47/4/3 45/4/3 44/4/3
f 47/4/3 44/4/3 43/4/3
f 47/4/3 46/4/3 45/4/3
f 48/4/3 46/4/3 47/4/3
f 49/4/3 47/4/3 43/4/3
f 50/4/3 47/4/3 49/4/3
f 51/4/3 49/4/3 43/4/3
f 52/1/3 50/1/3 49/1/3
f 52/4/3 49/4/3 51/4/3
f 53/4/3 47/4/3 50/4/3
f 53/1/3 50/1/3 52/1/3
f 54/1/3 48/1/3 47/1/3
f 54/4/3 47/4/3 53/4/3
f 55/1/3 48/1/3 54/1/3
f 56/4/3 53/4/3 52/4/3
f 56/1/3 48/1/3 55/1/3
f 56/4/3 55/4/3 54/4/3
f 56/4/3 54/4/3 53/4/3
f 57/4/3 46/4/3 48/4/3
f 57/1/3 48/1/3 56/1/3
f 58/2/3 43/2/3 37/2/3
f 58/4/3 51/4/3 43/4/3
f 59/1/3 52/1/3 51/1/3
f 59/4/3 51/4/3 58/4/3
f 60/4/3 56/4/3 52/4/3
f 60/1/3 52/1/3 59/1/3
f 60/4/3 57/4/3 56/4/3
f 61/1/3 59/1/3 58/1/3
f 61/2/3 58/2/3 37/2/3
f 62/4/3 60/4/3 59/4/3
f 62/1/3 59/1/3 61/1/3
f 63/2/3 38/2/3 46/2/3
f 63/4/3 60/4/3 62/4/3
f 63/4/3 46/4/3 57/4/3
f 63/4/3 57/4/3 60/4/3
f 64/2/3 62/2/3 61/2/3
f 64/2/3 61/2/3 37/2/3
f 64/2/3 63/2/3 62/2/3
f 65/2/3 38/2/3 63/2/3
f 65/2/3 63/2/3 64/2/3
f 66/2/4 67/2/4 68/2/4
f 68/2/4 67/2/4 69/2/4
f 68/4/4 69/4/4 70/4/4
f 70/4/4 69/4/4 71/4/4
f 71/4/4 69/4/4 72/4/4
f 72/4/4 69/4/4 73/4/4
f 68/4/4 70/4/4 74/4/4
f 70/1/4 71/1/4 74/1/4
f 71/4/4 72/4/4 75/4/4
f 74/1/4 71/1/4 75/1/4
f 72/1/4 73/1/4 76/1/4
f 75/4/4 72/4/4 76/4/4
f 74/4/4 75/4/4 76/4/4
f 73/4/4 69/4/4 77/4/4
f 76/1/4 73/1/4 77/1/4
f 74/4/4 76/4/4 78/4/4
f 76/4/4 77/4/4 78/4/4
f 77/4/4 69/4/4 79/4/4
f 78/4/4 77/4/4 79/4/4
f 66/2/4 68/2/4 80/2/4
f 74/4/4 78/4/4 80/4/4
f 68/4/4 74/4/4 80/4/4
f 80/4/4 78/4/4 81/4/4
f 78/1/4 79/1/4 82/1/4
f 81/4/4 78/4/4 82/4/4
f 79/4/4 69/4/4 83/4/4
f 82/1/4 79/1/4 83/1/4
f 83/4/4 69/4/4 84/4/4
f 80/1/4 81/1/4 85/1/4
f 66/2/4 80/2/4 85/2/4
f 81/4/4 82/4/4 86/4/4
f 85/1/4 81/1/4 86/1/4
f 82/4/4 83/4/4 86/4/4
f 83/1/4 84/1/4 87/1/4
f 86/4/4 83/4/4 87/4/4
f 84/4/4 69/4/4 88/4/4
f 87/1/4 84/1/4 88/1/4
f 66/2/4 85/2/4 89/2/4
f 86/4/4 87/4/4 89/4/4
f 87/4/4 88/4/4 89/4/4
f 85/4/4 86/4/4 89/4/4
f 88/4/4 69/4/4 90/4/4
f 89/4/4 88/4/4 90/4/4
f 69/2/4 67/2/4 90/2/4
f 66/2/4 89/2/4 91/2/4
f 89/2/4 90/2/4 91/2/4
f 90/2/4 67/2/4 92/2/4
f 91/2/4 90/2/4 92/2/4
f 95/2/5 94/2/5 93/2/5
f 96/2/5 94/2/5 95/2/5
f 97/4/5 96/4/5 95/4/5
f 98/4/5 96/4/5 97/4/5
f 99/4/5 97/4/5 95/4/5
f 99/1/5 98/1/5 97/1/5
f 100/4/5 96/4/5 98/4/5
f 100/1/5 98/1/5 99/1/5
f 101/4/5 99/4/5 95/4/5
f 101/4/5 100/4/5 99/4/5
f 102/4/5 96/4/5 100/4/5
f 102/4/5 100/4/5 101/4/5
f 103/4/5 101/4/5 95/4/5
f 103/1/5 102/1/5 101/1/5
f 104/4/5 96/4/5 102/4/5
f 104/1/5 102/1/5 103/1/5
f 105/2/5 95/2/5 93/2/5
f 105/4/5 103/4/5 95/4/5
f 105/4/5 104/4/5 103/4/5
f 106/4/5 96/4/5 104/4/5
f 106/4/5 104/4/5 105/4/5
f 106/2/5 94/2/5 96/2/5
f 107/2/5 105/2/5 93/2/5
f 107/2/5 106/2/5 105/2/5
f 108/2/5 94/2/5 106/2/5
f 108/2/5 106/2/5 107/2/5
f 109/2/6 110/2/6 111/2/6
f 111/2/6 110/2/6 112/2/6
f 111/4/6 112/4/6 113/4/6
f 113/4/6 112/4/6 114/4/6
f 111/4/6 113/4/6 115/4/6
f 113/1/6 114/1/6 115/1/6
f 114/4/6 112/4/6 116/4/6
f 115/1/6 114/1/6 116/1/6
f 111/4/6 115/4/6 117/4/6
f 115/4/6 116/4/6 117/4/6
f 117/4/6 116/4/6 118/4/6
f 116/4/6 112/4/6 119/4/6
f 118/4/6 116/4/6 119/4/6
f 119/4/6 112/4/6 120/4/6
f 117/1/6 118/1/6 121/1/6
f 111/4/6 117/4/6 121/4/6
f 118/4/6 119/4/6 122/4/6
f 121/1/6 118/1/6 122/1/6
f 119/1/6 120/1/6 123/1/6
f 122/4/6 119/4/6 123/4/6
f 120/4/6 112/4/6 124/4/6
f 123/1/6 120/1/6 124/1/6
f 122/4/6 123/4/6 125/4/6
f 121/4/6 122/4/6 125/4/6
f 123/4/6 124/4/6 125/4/6
f 111/4/6 121/4/6 125/4/6
f 125/4/6 124/4/6 126/4/6
f 126/4/6 124/4/6 127/4/6
f 127/4/6 124/4/6 128/4/6
f 111/4/6 125/4/6 129/4/6
f 125/1/6 126/1/6 129/1/6
f 126/4/6 127/4/6 130/4/6
f 129/1/6 126/1/6 130/1/6
f 127/1/6 128/1/6 131/1/6
f 130/4/6 127/4/6 131/4/6
f 128/4/6 124/4/6 132/4/6
f 131/1/6 128/1/6 132/1/6
f 109/2/6 111/2/6 133/2/6
f 130/4/6 131/4/6 133/4/6
f 131/4/6 132/4/6 133/4/6
f 111/4/6 129/4/6 133/4/6
f 129/4/6 130/4/6 133/4/6
f 132/4/6 124/4/6 134/4/6
f 133/4/6 132/4/6 134/4/6
f 112/2/6 110/2/6 134/2/6
f 124/4/6 112/4/6 134/4/6
f 109/2/6 133/2/6 135/2/6
f 133/2/6 134/2/6 135/2/6
f 134/2/6 110/2/6 136/2/6
f 135/2/6 134/2/6 136/2/6
