# MagicaVoxel @ Ephtracy

# group
g Grey block 2

# material
mtllib Grey block 2.mtl
usemtl palette

# normals
vn -1 0 0
vn 1 0 0
vn 0 0 1
vn 0 0 -1
vn 0 -1 0
vn 0 1 0

# texcoords
vt 0.501953 0.5
vt 0.505859 0.5
vt 0.509766 0.5

# verts
v -5 0 5
v -5 0 -5
v -5 1 4
v -5 1 2
v -5 1 -4
v -5 2 -1
v -5 2 -3
v -5 3 -1
v -5 3 -3
v -5 4 4
v -5 4 2
v -5 4 -0
v -5 4 -1
v -5 5 -0
v -5 5 -1
v -5 6 3
v -5 6 2
v -5 6 -2
v -5 6 -3
v -5 7 3
v -5 7 2
v -5 7 1
v -5 7 -1
v -5 7 -2
v -5 7 -3
v -5 8 1
v -5 8 -1
v -5 9 4
v -5 9 -4
v -5 10 5
v -5 10 -5
v 5 0 5
v 5 0 -5
v 5 1 4
v 5 1 -3
v 5 1 -4
v 5 2 3
v 5 2 2
v 5 3 4
v 5 3 3
v 5 3 2
v 5 3 -0
v 5 3 -2
v 5 3 -3
v 5 3 -4
v 5 4 4
v 5 4 3
v 5 4 -0
v 5 4 -2
v 5 5 -1
v 5 5 -2
v 5 6 4
v 5 6 1
v 5 6 -1
v 5 6 -2
v 5 7 4
v 5 7 2
v 5 7 1
v 5 7 -0
v 5 8 2
v 5 8 -0
v 5 8 -3
v 5 8 -4
v 5 9 4
v 5 9 -3
v 5 9 -4
v 5 10 5
v 5 10 -5
v -5 0 5
v -5 10 5
v -4 1 5
v -4 2 5
v -4 9 5
v -3 5 5
v -3 6 5
v -2 1 5
v -2 2 5
v -1 4 5
v -1 5 5
v -1 6 5
v -1 7 5
v 0 4 5
v 0 5 5
v 0 7 5
v 0 8 5
v 1 2 5
v 1 3 5
v 3 2 5
v 3 3 5
v 3 6 5
v 3 8 5
v 4 1 5
v 4 9 5
v 5 0 5
v 5 10 5
v -5 0 -5
v -5 10 -5
v -4 1 -5
v -4 5 -5
v -4 6 -5
v -4 9 -5
v -3 1 -5
v -3 3 -5
v -2 4 -5
v -2 5 -5
v -2 6 -5
v -1 1 -5
v -1 3 -5
v -1 4 -5
v -1 5 -5
v 0 6 -5
v 0 7 -5
v 1 2 -5
v 1 3 -5
v 2 2 -5
v 2 3 -5
v 2 4 -5
v 2 6 -5
v 2 7 -5
v 2 8 -5
v 3 3 -5
v 3 4 -5
v 3 7 -5
v 3 8 -5
v 4 1 -5
v 4 9 -5
v 5 0 -5
v 5 10 -5
v -5 0 5
v 5 0 5
v -4 0 4
v -3 0 4
v 2 0 4
v 3 0 4
v 4 0 4
v -4 0 3
v -3 0 3
v -2 0 2
v 1 0 2
v 2 0 2
v 3 0 2
v 0 0 1
v 1 0 1
v -1 0 -0
v 0 0 -0
v 1 0 -0
v 3 0 -0
v -3 0 -1
v -2 0 -1
v -1 0 -1
v 1 0 -2
v 3 0 -2
v -3 0 -3
v -2 0 -3
v -4 0 -4
v 4 0 -4
v -5 0 -5
v 5 0 -5
v -5 10 5
v 5 10 5
v -4 10 4
v 4 10 4
v -4 10 3
v -2 10 3
v -1 10 3
v 0 10 3
v 0 10 2
v 3 10 2
v -1 10 1
v 0 10 1
v 2 10 1
v 3 10 1
v -4 10 -0
v -2 10 -0
v 0 10 -0
v 1 10 -0
v 2 10 -0
v 3 10 -0
v -2 10 -1
v -1 10 -1
v 1 10 -1
v 3 10 -1
v 4 10 -1
v -2 10 -2
v -1 10 -2
v 1 10 -2
v 2 10 -2
v 3 10 -2
v 4 10 -2
v 0 10 -3
v 1 10 -3
v -4 10 -4
v 0 10 -4
v 2 10 -4
v 4 10 -4
v -5 10 -5
v 5 10 -5

# faces
f 3/3/1 2/3/1 1/3/1
f 4/3/1 2/3/1 3/3/1
f 5/3/1 2/3/1 4/3/1
f 6/2/1 5/2/1 4/2/1
f 7/2/1 5/2/1 6/2/1
f 8/2/1 6/2/1 4/2/1
f 8/1/1 7/1/1 6/1/1
f 9/2/1 5/2/1 7/2/1
f 9/1/1 7/1/1 8/1/1
f 10/3/1 3/3/1 1/3/1
f 10/1/1 4/1/1 3/1/1
f 11/2/1 9/2/1 8/2/1
f 11/1/1 4/1/1 10/1/1
f 11/2/1 8/2/1 4/2/1
f 12/2/1 9/2/1 11/2/1
f 13/2/1 9/2/1 12/2/1
f 14/2/1 11/2/1 10/2/1
f 14/2/1 12/2/1 11/2/1
f 14/1/1 13/1/1 12/1/1
f 15/2/1 9/2/1 13/2/1
f 15/1/1 13/1/1 14/1/1
f 16/2/1 14/2/1 10/2/1
f 16/2/1 15/2/1 14/2/1
f 17/2/1 15/2/1 16/2/1
f 18/2/1 9/2/1 15/2/1
f 18/2/1 15/2/1 17/2/1
f 19/2/1 5/2/1 9/2/1
f 19/2/1 9/2/1 18/2/1
f 20/1/1 17/1/1 16/1/1
f 20/2/1 16/2/1 10/2/1
f 21/2/1 18/2/1 17/2/1
f 21/1/1 17/1/1 20/1/1
f 22/2/1 18/2/1 21/2/1
f 23/2/1 18/2/1 22/2/1
f 24/1/1 19/1/1 18/1/1
f 24/2/1 18/2/1 23/2/1
f 25/2/1 5/2/1 19/2/1
f 25/1/1 19/1/1 24/1/1
f 26/1/1 23/1/1 22/1/1
f 26/2/1 21/2/1 20/2/1
f 26/2/1 22/2/1 21/2/1
f 27/2/1 24/2/1 23/2/1
f 27/1/1 23/1/1 26/1/1
f 27/2/1 25/2/1 24/2/1
f 28/2/1 20/2/1 10/2/1
f 28/3/1 10/3/1 1/3/1
f 28/2/1 27/2/1 26/2/1
f 28/2/1 26/2/1 20/2/1
f 29/2/1 25/2/1 27/2/1
f 29/2/1 27/2/1 28/2/1
f 29/2/1 5/2/1 25/2/1
f 29/3/1 2/3/1 5/3/1
f 30/3/1 28/3/1 1/3/1
f 30/3/1 29/3/1 28/3/1
f 31/3/1 2/3/1 29/3/1
f 31/3/1 29/3/1 30/3/1
f 32/3/2 33/3/2 34/3/2
f 34/3/2 33/3/2 35/3/2
f 35/3/2 33/3/2 36/3/2
f 34/2/2 35/2/2 37/2/2
f 37/2/2 35/2/2 38/2/2
f 32/3/2 34/3/2 39/3/2
f 34/2/2 37/2/2 39/2/2
f 37/1/2 38/1/2 40/1/2
f 39/2/2 37/2/2 40/2/2
f 38/2/2 35/2/2 41/2/2
f 40/1/2 38/1/2 41/1/2
f 41/2/2 35/2/2 42/2/2
f 42/2/2 35/2/2 43/2/2
f 35/1/2 36/1/2 44/1/2
f 43/2/2 35/2/2 44/2/2
f 36/3/2 33/3/2 45/3/2
f 44/1/2 36/1/2 45/1/2
f 39/1/2 40/1/2 46/1/2
f 32/3/2 39/3/2 46/3/2
f 40/2/2 41/2/2 47/2/2
f 46/1/2 40/1/2 47/1/2
f 41/2/2 42/2/2 47/2/2
f 42/1/2 43/1/2 48/1/2
f 47/2/2 42/2/2 48/2/2
f 43/2/2 44/2/2 49/2/2
f 48/1/2 43/1/2 49/1/2
f 44/2/2 45/2/2 49/2/2
f 47/2/2 48/2/2 50/2/2
f 46/2/2 47/2/2 50/2/2
f 48/2/2 49/2/2 50/2/2
f 49/2/2 45/2/2 51/2/2
f 50/2/2 49/2/2 51/2/2
f 46/2/2 50/2/2 52/2/2
f 32/3/2 46/3/2 52/3/2
f 52/2/2 50/2/2 53/2/2
f 50/1/2 51/1/2 54/1/2
f 53/2/2 50/2/2 54/2/2
f 51/2/2 45/2/2 55/2/2
f 54/1/2 51/1/2 55/1/2
f 52/1/2 53/1/2 56/1/2
f 32/3/2 52/3/2 56/3/2
f 56/1/2 53/1/2 57/1/2
f 53/2/2 54/2/2 58/2/2
f 57/1/2 53/1/2 58/1/2
f 54/2/2 55/2/2 58/2/2
f 58/2/2 55/2/2 59/2/2
f 56/2/2 57/2/2 60/2/2
f 57/1/2 58/1/2 60/1/2
f 58/1/2 59/1/2 60/1/2
f 59/2/2 55/2/2 61/2/2
f 60/1/2 59/1/2 61/1/2
f 55/2/2 45/2/2 62/2/2
f 61/2/2 55/2/2 62/2/2
f 45/3/2 33/3/2 63/3/2
f 62/2/2 45/2/2 63/2/2
f 61/2/2 62/2/2 64/2/2
f 56/2/2 60/2/2 64/2/2
f 60/2/2 61/2/2 64/2/2
f 32/3/2 56/3/2 64/3/2
f 62/1/2 63/1/2 65/1/2
f 64/2/2 62/2/2 65/2/2
f 63/3/2 33/3/2 66/3/2
f 65/1/2 63/1/2 66/1/2
f 64/3/2 65/3/2 67/3/2
f 32/3/2 64/3/2 67/3/2
f 65/3/2 66/3/2 67/3/2
f 66/3/2 33/3/2 68/3/2
f 67/3/2 66/3/2 68/3/2
f 71/3/3 70/3/3 69/3/3
f 72/3/3 70/3/3 71/3/3
f 73/3/3 70/3/3 72/3/3
f 74/2/3 73/2/3 72/2/3
f 75/2/3 73/2/3 74/2/3
f 76/3/3 71/3/3 69/3/3
f 76/1/3 72/1/3 71/1/3
f 77/2/3 74/2/3 72/2/3
f 77/1/3 72/1/3 76/1/3
f 78/2/3 77/2/3 76/2/3
f 78/2/3 74/2/3 77/2/3
f 79/1/3 75/1/3 74/1/3
f 79/2/3 74/2/3 78/2/3
f 80/2/3 73/2/3 75/2/3
f 80/1/3 75/1/3 79/1/3
f 81/2/3 73/2/3 80/2/3
f 82/1/3 79/1/3 78/1/3
f 82/2/3 78/2/3 76/2/3
f 83/2/3 80/2/3 79/2/3
f 83/1/3 79/1/3 82/1/3
f 84/2/3 73/2/3 81/2/3
f 84/1/3 81/1/3 80/1/3
f 85/2/3 73/2/3 84/2/3
f 86/2/3 83/2/3 82/2/3
f 86/2/3 82/2/3 76/2/3
f 87/2/3 83/2/3 86/2/3
f 88/2/3 86/2/3 76/2/3
f 88/1/3 87/1/3 86/1/3
f 89/2/3 83/2/3 87/2/3
f 89/1/3 87/1/3 88/1/3
f 90/2/3 80/2/3 83/2/3
f 90/2/3 83/2/3 89/2/3
f 90/1/3 85/1/3 84/1/3
f 90/1/3 84/1/3 80/1/3
f 91/2/3 73/2/3 85/2/3
f 91/1/3 85/1/3 90/1/3
f 92/2/3 89/2/3 88/2/3
f 92/2/3 90/2/3 89/2/3
f 92/2/3 91/2/3 90/2/3
f 92/2/3 88/2/3 76/2/3
f 92/3/3 76/3/3 69/3/3
f 93/2/3 73/2/3 91/2/3
f 93/2/3 91/2/3 92/2/3
f 93/3/3 70/3/3 73/3/3
f 94/3/3 92/3/3 69/3/3
f 94/3/3 93/3/3 92/3/3
f 95/3/3 70/3/3 93/3/3
f 95/3/3 93/3/3 94/3/3
f 96/3/4 97/3/4 98/3/4
f 98/3/4 97/3/4 99/3/4
f 99/3/4 97/3/4 100/3/4
f 100/3/4 97/3/4 101/3/4
f 96/3/4 98/3/4 102/3/4
f 98/2/4 99/2/4 102/2/4
f 102/2/4 99/2/4 103/2/4
f 103/2/4 99/2/4 104/2/4
f 99/1/4 100/1/4 105/1/4
f 104/2/4 99/2/4 105/2/4
f 100/2/4 101/2/4 106/2/4
f 105/1/4 100/1/4 106/1/4
f 96/3/4 102/3/4 107/3/4
f 102/1/4 103/1/4 107/1/4
f 103/2/4 104/2/4 108/2/4
f 107/1/4 103/1/4 108/1/4
f 104/1/4 105/1/4 109/1/4
f 108/2/4 104/2/4 109/2/4
f 105/2/4 106/2/4 110/2/4
f 109/1/4 105/1/4 110/1/4
f 107/2/4 108/2/4 111/2/4
f 110/2/4 106/2/4 111/2/4
f 109/2/4 110/2/4 111/2/4
f 108/2/4 109/2/4 111/2/4
f 106/2/4 101/2/4 111/2/4
f 111/2/4 101/2/4 112/2/4
f 107/2/4 111/2/4 113/2/4
f 113/2/4 111/2/4 114/2/4
f 107/2/4 113/2/4 115/2/4
f 113/1/4 114/1/4 115/1/4
f 114/2/4 111/2/4 116/2/4
f 115/1/4 114/1/4 116/1/4
f 116/2/4 111/2/4 117/2/4
f 111/1/4 112/1/4 118/1/4
f 117/2/4 111/2/4 118/2/4
f 112/2/4 101/2/4 119/2/4
f 118/1/4 112/1/4 119/1/4
f 119/2/4 101/2/4 120/2/4
f 116/1/4 117/1/4 121/1/4
f 115/2/4 116/2/4 121/2/4
f 117/2/4 118/2/4 122/2/4
f 121/1/4 117/1/4 122/1/4
f 118/2/4 119/2/4 122/2/4
f 119/1/4 120/1/4 123/1/4
f 122/2/4 119/2/4 123/2/4
f 120/2/4 101/2/4 124/2/4
f 123/1/4 120/1/4 124/1/4
f 96/3/4 107/3/4 125/3/4
f 115/2/4 121/2/4 125/2/4
f 123/2/4 124/2/4 125/2/4
f 121/2/4 122/2/4 125/2/4
f 107/2/4 115/2/4 125/2/4
f 122/2/4 123/2/4 125/2/4
f 101/3/4 97/3/4 126/3/4
f 125/2/4 124/2/4 126/2/4
f 124/2/4 101/2/4 126/2/4
f 96/3/4 125/3/4 127/3/4
f 125/3/4 126/3/4 127/3/4
f 126/3/4 97/3/4 128/3/4
f 127/3/4 126/3/4 128/3/4
f 131/3/5 130/3/5 129/3/5
f 132/3/5 130/3/5 131/3/5
f 133/3/5 130/3/5 132/3/5
f 134/3/5 130/3/5 133/3/5
f 135/3/5 130/3/5 134/3/5
f 136/3/5 131/3/5 129/3/5
f 136/1/5 132/1/5 131/1/5
f 137/2/5 133/2/5 132/2/5
f 137/1/5 132/1/5 136/1/5
f 138/2/5 137/2/5 136/2/5
f 138/2/5 133/2/5 137/2/5
f 139/2/5 133/2/5 138/2/5
f 140/1/5 134/1/5 133/1/5
f 140/2/5 133/2/5 139/2/5
f 141/2/5 135/2/5 134/2/5
f 141/1/5 134/1/5 140/1/5
f 142/1/5 139/1/5 138/1/5
f 143/2/5 140/2/5 139/2/5
f 143/1/5 139/1/5 142/1/5
f 143/2/5 141/2/5 140/2/5
f 144/1/5 142/1/5 138/1/5
f 145/2/5 143/2/5 142/2/5
f 145/1/5 142/1/5 144/1/5
f 146/2/5 141/2/5 143/2/5
f 146/2/5 143/2/5 145/2/5
f 147/2/5 135/2/5 141/2/5
f 147/2/5 141/2/5 146/2/5
f 148/2/5 138/2/5 136/2/5
f 149/1/5 144/1/5 138/1/5
f 149/2/5 138/2/5 148/2/5
f 150/2/5 145/2/5 144/2/5
f 150/1/5 144/1/5 149/1/5
f 150/2/5 146/2/5 145/2/5
f 151/1/5 147/1/5 146/1/5
f 151/2/5 146/2/5 150/2/5
f 151/2/5 150/2/5 149/2/5
f 152/2/5 135/2/5 147/2/5
f 152/1/5 147/1/5 151/1/5
f 153/1/5 149/1/5 148/1/5
f 153/2/5 148/2/5 136/2/5
f 154/2/5 152/2/5 151/2/5
f 154/1/5 149/1/5 153/1/5
f 154/2/5 151/2/5 149/2/5
f 155/3/5 136/3/5 129/3/5
f 155/2/5 153/2/5 136/2/5
f 155/2/5 154/2/5 153/2/5
f 156/3/5 130/3/5 135/3/5
f 156/2/5 154/2/5 155/2/5
f 156/2/5 135/2/5 152/2/5
f 156/2/5 152/2/5 154/2/5
f 157/3/5 155/3/5 129/3/5
f 157/3/5 156/3/5 155/3/5
f 158/3/5 130/3/5 156/3/5
f 158/3/5 156/3/5 157/3/5
f 159/3/6 160/3/6 161/3/6
f 161/3/6 160/3/6 162/3/6
f 159/3/6 161/3/6 163/3/6
f 161/2/6 162/2/6 163/2/6
f 163/2/6 162/2/6 164/2/6
f 164/2/6 162/2/6 165/2/6
f 165/2/6 162/2/6 166/2/6
f 165/1/6 166/1/6 167/1/6
f 166/2/6 162/2/6 167/2/6
f 167/2/6 162/2/6 168/2/6
f 164/2/6 165/2/6 169/2/6
f 165/1/6 167/1/6 169/1/6
f 167/1/6 168/1/6 169/1/6
f 169/1/6 168/1/6 170/1/6
f 170/1/6 168/1/6 171/1/6
f 168/2/6 162/2/6 172/2/6
f 171/1/6 168/1/6 172/1/6
f 159/3/6 163/3/6 173/3/6
f 163/1/6 164/1/6 173/1/6
f 164/2/6 169/2/6 174/2/6
f 173/1/6 164/1/6 174/1/6
f 169/2/6 170/2/6 174/2/6
f 170/1/6 171/1/6 175/1/6
f 174/2/6 170/2/6 175/2/6
f 175/1/6 171/1/6 176/1/6
f 171/2/6 172/2/6 177/2/6
f 176/1/6 171/1/6 177/1/6
f 172/2/6 162/2/6 178/2/6
f 177/2/6 172/2/6 178/2/6
f 175/2/6 176/2/6 179/2/6
f 173/2/6 174/2/6 179/2/6
f 174/2/6 175/2/6 179/2/6
f 179/2/6 176/2/6 180/2/6
f 176/1/6 177/1/6 181/1/6
f 180/2/6 176/2/6 181/2/6
f 177/1/6 178/1/6 181/1/6
f 178/2/6 162/2/6 182/2/6
f 181/1/6 178/1/6 182/1/6
f 162/3/6 160/3/6 183/3/6
f 182/2/6 162/2/6 183/2/6
f 179/1/6 180/1/6 184/1/6
f 173/2/6 179/2/6 184/2/6
f 181/2/6 182/2/6 185/2/6
f 184/1/6 180/1/6 185/1/6
f 180/2/6 181/2/6 185/2/6
f 185/2/6 182/2/6 186/2/6
f 186/2/6 182/2/6 187/2/6
f 182/1/6 183/1/6 188/1/6
f 187/2/6 182/2/6 188/2/6
f 183/3/6 160/3/6 189/3/6
f 188/1/6 183/1/6 189/1/6
f 184/2/6 185/2/6 190/2/6
f 185/2/6 186/2/6 190/2/6
f 186/1/6 187/1/6 191/1/6
f 190/2/6 186/2/6 191/2/6
f 173/2/6 184/2/6 192/2/6
f 159/3/6 173/3/6 192/3/6
f 184/2/6 190/2/6 192/2/6
f 190/1/6 191/1/6 193/1/6
f 192/2/6 190/2/6 193/2/6
f 191/1/6 187/1/6 194/1/6
f 193/1/6 191/1/6 194/1/6
f 187/2/6 188/2/6 194/2/6
f 188/2/6 189/2/6 194/2/6
f 189/3/6 160/3/6 195/3/6
f 194/2/6 189/2/6 195/2/6
f 192/3/6 193/3/6 196/3/6
f 193/3/6 194/3/6 196/3/6
f 194/3/6 195/3/6 196/3/6
f 159/3/6 192/3/6 196/3/6
f 195/3/6 160/3/6 197/3/6
f 196/3/6 195/3/6 197/3/6
