# MagicaVoxel @ Ephtracy

# group
g Turret Base 1

# material
mtllib Turret Base 1.mtl
usemtl palette

# normals
vn -1 0 0
vn 1 0 0
vn 0 0 1
vn 0 0 -1
vn 0 -1 0
vn 0 1 0

# texcoords
vt 0.501953 0.5
vt 0.537109 0.5
vt 0.576172 0.5

# verts
v -4 0 4
v -4 0 -4
v -4 1 4
v -4 1 1
v -4 1 -1
v -4 1 -4
v -4 5 1
v -4 5 -1
v -3 1 3
v -3 1 1
v -3 1 -1
v -3 1 -3
v -3 4 3
v -3 4 1
v -3 4 -1
v -3 4 -3
v -2 4 2
v -2 4 1
v -2 4 -1
v -2 4 -2
v -2 5 1
v -2 5 -1
v -2 6 2
v -2 6 -2
v -2 7 2
v -2 7 -2
v -1 1 4
v -1 1 3
v -1 1 -3
v -1 1 -4
v -1 4 3
v -1 4 2
v -1 4 -2
v -1 4 -3
v -1 5 4
v -1 5 2
v -1 5 -2
v -1 5 -4
v 1 1 4
v 1 1 3
v 1 1 -3
v 1 1 -4
v 1 4 3
v 1 4 2
v 1 4 -2
v 1 4 -3
v 1 5 4
v 1 5 2
v 1 5 -2
v 1 5 -4
v 2 4 2
v 2 4 1
v 2 4 -1
v 2 4 -2
v 2 5 1
v 2 5 -1
v 2 6 2
v 2 6 -2
v 2 7 2
v 2 7 -2
v 3 1 3
v 3 1 1
v 3 1 -1
v 3 1 -3
v 3 4 3
v 3 4 1
v 3 4 -1
v 3 4 -3
v 4 0 4
v 4 0 -4
v 4 1 4
v 4 1 1
v 4 1 -1
v 4 1 -4
v 4 5 1
v 4 5 -1
v -4 0 4
v -4 1 4
v -1 1 4
v -1 5 4
v 1 1 4
v 1 5 4
v 4 0 4
v 4 1 4
v -3 1 3
v -3 4 3
v -1 1 3
v -1 4 3
v 1 1 3
v 1 4 3
v 3 1 3
v 3 4 3
v -2 4 2
v -2 6 2
v -2 7 2
v -1 4 2
v -1 5 2
v 1 4 2
v 1 5 2
v 2 4 2
v 2 6 2
v 2 7 2
v -4 1 1
v -4 5 1
v -3 1 1
v -3 4 1
v -2 4 1
v -2 5 1
v 2 4 1
v 2 5 1
v 3 1 1
v 3 4 1
v 4 1 1
v 4 5 1
v -4 1 -1
v -4 5 -1
v -3 1 -1
v -3 4 -1
v -2 4 -1
v -2 5 -1
v 2 4 -1
v 2 5 -1
v 3 1 -1
v 3 4 -1
v 4 1 -1
v 4 5 -1
v -2 4 -2
v -2 6 -2
v -2 7 -2
v -1 4 -2
v -1 5 -2
v 1 4 -2
v 1 5 -2
v 2 4 -2
v 2 6 -2
v 2 7 -2
v -3 1 -3
v -3 4 -3
v -1 1 -3
v -1 4 -3
v 1 1 -3
v 1 4 -3
v 3 1 -3
v 3 4 -3
v -4 0 -4
v -4 1 -4
v -1 1 -4
v -1 5 -4
v 1 1 -4
v 1 5 -4
v 4 0 -4
v 4 1 -4
v -4 0 4
v 4 0 4
v -3 0 3
v 3 0 3
v -3 0 -3
v 3 0 -3
v -4 0 -4
v 4 0 -4
v -4 1 4
v -1 1 4
v 1 1 4
v 4 1 4
v -3 1 3
v -1 1 3
v 1 1 3
v 3 1 3
v -4 1 1
v -3 1 1
v 3 1 1
v 4 1 1
v -4 1 -1
v -3 1 -1
v 3 1 -1
v 4 1 -1
v -3 1 -3
v -1 1 -3
v 1 1 -3
v 3 1 -3
v -4 1 -4
v -1 1 -4
v 1 1 -4
v 4 1 -4
v -3 4 3
v -1 4 3
v 1 4 3
v 3 4 3
v -2 4 2
v -1 4 2
v 1 4 2
v 2 4 2
v -3 4 1
v -2 4 1
v 2 4 1
v 3 4 1
v -3 4 -1
v -2 4 -1
v 2 4 -1
v 3 4 -1
v -2 4 -2
v -1 4 -2
v 1 4 -2
v 2 4 -2
v -3 4 -3
v -1 4 -3
v 1 4 -3
v 3 4 -3
v -1 5 4
v 1 5 4
v -1 5 2
v 1 5 2
v -4 5 1
v -2 5 1
v 2 5 1
v 4 5 1
v -4 5 -1
v -2 5 -1
v 2 5 -1
v 4 5 -1
v -1 5 -2
v 1 5 -2
v -1 5 -4
v 1 5 -4
v -2 7 2
v 2 7 2
v -2 7 -2
v 2 7 -2

# faces
f 3/1/1 2/1/1 1/1/1
f 4/1/1 2/1/1 3/1/1
f 5/1/1 2/1/1 4/1/1
f 6/1/1 2/1/1 5/1/1
f 7/1/1 5/1/1 4/1/1
f 8/1/1 5/1/1 7/1/1
f 13/2/1 10/2/1 9/2/1
f 14/2/1 10/2/1 13/2/1
f 15/2/1 12/2/1 11/2/1
f 16/2/1 12/2/1 15/2/1
f 21/1/1 18/1/1 17/1/1
f 22/1/1 20/1/1 19/1/1
f 23/1/1 21/1/1 17/1/1
f 23/1/1 22/1/1 21/1/1
f 24/1/1 20/1/1 22/1/1
f 24/1/1 22/1/1 23/1/1
f 25/3/1 24/3/1 23/3/1
f 26/3/1 24/3/1 25/3/1
f 31/1/1 28/1/1 27/1/1
f 34/1/1 30/1/1 29/1/1
f 35/1/1 32/1/1 31/1/1
f 35/1/1 31/1/1 27/1/1
f 36/1/1 32/1/1 35/1/1
f 37/1/1 34/1/1 33/1/1
f 38/1/1 30/1/1 34/1/1
f 38/1/1 34/1/1 37/1/1
f 39/1/2 40/1/2 43/1/2
f 41/1/2 42/1/2 46/1/2
f 43/1/2 44/1/2 47/1/2
f 39/1/2 43/1/2 47/1/2
f 47/1/2 44/1/2 48/1/2
f 45/1/2 46/1/2 49/1/2
f 46/1/2 42/1/2 50/1/2
f 49/1/2 46/1/2 50/1/2
f 51/1/2 52/1/2 55/1/2
f 53/1/2 54/1/2 56/1/2
f 51/1/2 55/1/2 57/1/2
f 55/1/2 56/1/2 57/1/2
f 56/1/2 54/1/2 58/1/2
f 57/1/2 56/1/2 58/1/2
f 57/3/2 58/3/2 59/3/2
f 59/3/2 58/3/2 60/3/2
f 61/2/2 62/2/2 65/2/2
f 65/2/2 62/2/2 66/2/2
f 63/2/2 64/2/2 67/2/2
f 67/2/2 64/2/2 68/2/2
f 69/1/2 70/1/2 71/1/2
f 71/1/2 70/1/2 72/1/2
f 72/1/2 70/1/2 73/1/2
f 73/1/2 70/1/2 74/1/2
f 72/1/2 73/1/2 75/1/2
f 75/1/2 73/1/2 76/1/2
f 79/1/3 78/1/3 77/1/3
f 81/1/3 79/1/3 77/1/3
f 81/1/3 80/1/3 79/1/3
f 82/1/3 80/1/3 81/1/3
f 83/1/3 81/1/3 77/1/3
f 84/1/3 81/1/3 83/1/3
f 87/2/3 86/2/3 85/2/3
f 88/2/3 86/2/3 87/2/3
f 91/2/3 90/2/3 89/2/3
f 92/2/3 90/2/3 91/2/3
f 96/1/3 94/1/3 93/1/3
f 97/1/3 94/1/3 96/1/3
f 99/1/3 94/1/3 97/1/3
f 100/1/3 99/1/3 98/1/3
f 101/3/3 95/3/3 94/3/3
f 101/1/3 99/1/3 100/1/3
f 101/1/3 94/1/3 99/1/3
f 102/3/3 95/3/3 101/3/3
f 105/1/3 104/1/3 103/1/3
f 106/1/3 104/1/3 105/1/3
f 107/1/3 104/1/3 106/1/3
f 108/1/3 104/1/3 107/1/3
f 112/1/3 110/1/3 109/1/3
f 113/1/3 112/1/3 111/1/3
f 114/1/3 110/1/3 112/1/3
f 114/1/3 112/1/3 113/1/3
f 115/1/4 116/1/4 117/1/4
f 117/1/4 116/1/4 118/1/4
f 118/1/4 116/1/4 119/1/4
f 119/1/4 116/1/4 120/1/4
f 121/1/4 122/1/4 124/1/4
f 123/1/4 124/1/4 125/1/4
f 124/1/4 122/1/4 126/1/4
f 125/1/4 124/1/4 126/1/4
f 127/1/4 128/1/4 130/1/4
f 130/1/4 128/1/4 131/1/4
f 131/1/4 128/1/4 133/1/4
f 132/1/4 133/1/4 134/1/4
f 128/3/4 129/3/4 135/3/4
f 134/1/4 133/1/4 135/1/4
f 133/1/4 128/1/4 135/1/4
f 135/3/4 129/3/4 136/3/4
f 137/2/4 138/2/4 139/2/4
f 139/2/4 138/2/4 140/2/4
f 141/2/4 142/2/4 143/2/4
f 143/2/4 142/2/4 144/2/4
f 145/1/4 146/1/4 147/1/4
f 145/1/4 147/1/4 149/1/4
f 147/1/4 148/1/4 149/1/4
f 149/1/4 148/1/4 150/1/4
f 145/1/4 149/1/4 151/1/4
f 151/1/4 149/1/4 152/1/4
f 155/1/5 154/1/5 153/1/5
f 156/1/5 154/1/5 155/1/5
f 157/1/5 155/1/5 153/1/5
f 157/2/5 156/2/5 155/2/5
f 158/1/5 154/1/5 156/1/5
f 158/2/5 156/2/5 157/2/5
f 159/1/5 157/1/5 153/1/5
f 159/1/5 158/1/5 157/1/5
f 160/1/5 154/1/5 158/1/5
f 160/1/5 158/1/5 159/1/5
f 161/1/6 162/1/6 165/1/6
f 165/1/6 162/1/6 166/1/6
f 163/1/6 164/1/6 167/1/6
f 167/1/6 164/1/6 168/1/6
f 161/1/6 165/1/6 169/1/6
f 169/1/6 165/1/6 170/1/6
f 168/1/6 164/1/6 171/1/6
f 171/1/6 164/1/6 172/1/6
f 173/1/6 174/1/6 177/1/6
f 175/1/6 176/1/6 180/1/6
f 177/1/6 178/1/6 181/1/6
f 173/1/6 177/1/6 181/1/6
f 181/1/6 178/1/6 182/1/6
f 179/1/6 180/1/6 183/1/6
f 180/1/6 176/1/6 184/1/6
f 183/1/6 180/1/6 184/1/6
f 185/2/6 186/2/6 189/2/6
f 189/2/6 186/2/6 190/2/6
f 187/2/6 188/2/6 191/2/6
f 191/2/6 188/2/6 192/2/6
f 185/2/6 189/2/6 193/2/6
f 193/2/6 189/2/6 194/2/6
f 192/2/6 188/2/6 195/2/6
f 195/2/6 188/2/6 196/2/6
f 197/2/6 198/2/6 201/2/6
f 199/2/6 200/2/6 204/2/6
f 201/2/6 202/2/6 205/2/6
f 197/2/6 201/2/6 205/2/6
f 205/2/6 202/2/6 206/2/6
f 203/2/6 204/2/6 207/2/6
f 204/2/6 200/2/6 208/2/6
f 207/2/6 204/2/6 208/2/6
f 209/1/6 210/1/6 211/1/6
f 211/1/6 210/1/6 212/1/6
f 213/1/6 214/1/6 217/1/6
f 217/1/6 214/1/6 218/1/6
f 215/1/6 216/1/6 219/1/6
f 219/1/6 216/1/6 220/1/6
f 221/1/6 222/1/6 223/1/6
f 223/1/6 222/1/6 224/1/6
f 225/3/6 226/3/6 227/3/6
f 227/3/6 226/3/6 228/3/6
