# MagicaVoxel @ Ephtracy

# group
g Turret Top 2

# material
mtllib Turret Top 2.mtl
usemtl palette

# normals
vn -1 0 0
vn 1 0 0
vn 0 0 1
vn 0 0 -1
vn 0 -1 0
vn 0 1 0

# texcoords
vt 0.392578 0.5
vt 0.455078 0.5
vt 0.486328 0.5
vt 0.505859 0.5
vt 0.517578 0.5
vt 0.533203 0.5
vt 0.537109 0.5

# verts
v -6 6 2
v -6 6 1
v -6 6 -1
v -6 6 -2
v -6 8 2
v -6 8 1
v -6 8 -1
v -6 8 -2
v -3 3 2
v -3 3 -2
v -3 4 3
v -3 4 2
v -3 4 -2
v -3 4 -3
v -3 5 3
v -3 5 2
v -3 5 -2
v -3 5 -3
v -3 6 2
v -3 6 1
v -3 6 -1
v -3 6 -2
v -3 7 3
v -3 7 2
v -3 7 -2
v -3 7 -3
v -3 8 3
v -3 8 2
v -3 8 1
v -3 8 -1
v -3 8 -2
v -3 8 -3
v -3 9 2
v -3 9 -2
v -2 0 2
v -2 0 -2
v -2 1 2
v -2 1 -2
v -2 2 2
v -2 2 1
v -2 2 -1
v -2 2 -2
v -2 3 1
v -2 3 -1
v -1 3 3
v -1 3 2
v -1 3 -2
v -1 3 -3
v -1 4 3
v -1 4 2
v -1 4 -2
v -1 4 -3
v -1 5 3
v -1 5 2
v -1 5 -2
v -1 5 -3
v -1 7 3
v -1 7 2
v -1 7 -2
v -1 7 -3
v 0 3 3
v 0 3 2
v 0 3 -2
v 0 3 -3
v 0 4 3
v 0 4 2
v 0 4 -2
v 0 4 -3
v 0 5 3
v 0 5 2
v 0 5 -2
v 0 5 -3
v 0 7 3
v 0 7 2
v 0 7 -2
v 0 7 -3
v 2 0 2
v 2 0 -2
v 2 1 2
v 2 1 -2
v 2 2 2
v 2 2 1
v 2 2 -1
v 2 2 -2
v 2 3 1
v 2 3 -1
v 3 3 2
v 3 3 -2
v 3 4 3
v 3 4 2
v 3 4 -2
v 3 4 -3
v 3 5 3
v 3 5 2
v 3 5 -2
v 3 5 -3
v 3 7 3
v 3 7 2
v 3 7 -2
v 3 7 -3
v 3 8 3
v 3 8 2
v 3 8 -2
v 3 8 -3
v 3 9 2
v 3 9 -2
v -3 4 3
v -3 5 3
v -3 7 3
v -3 8 3
v -1 3 3
v -1 4 3
v -1 5 3
v -1 7 3
v 0 3 3
v 0 4 3
v 0 5 3
v 0 7 3
v 3 4 3
v 3 5 3
v 3 7 3
v 3 8 3
v -6 6 2
v -6 8 2
v -5 6 2
v -5 8 2
v -3 3 2
v -3 4 2
v -3 5 2
v -3 6 2
v -3 7 2
v -3 8 2
v -3 9 2
v -2 0 2
v -2 1 2
v -2 2 2
v -1 3 2
v -1 4 2
v -1 5 2
v -1 7 2
v 0 3 2
v 0 4 2
v 0 5 2
v 0 7 2
v 2 0 2
v 2 1 2
v 2 2 2
v 3 3 2
v 3 4 2
v 3 5 2
v 3 7 2
v 3 8 2
v 3 9 2
v -2 2 1
v -2 3 1
v -1 3 1
v 0 3 1
v 2 2 1
v 2 3 1
v -6 6 -1
v -6 8 -1
v -5 6 -1
v -5 8 -1
v -3 6 -1
v -3 8 -1
v -6 6 1
v -6 8 1
v -5 6 1
v -5 8 1
v -3 6 1
v -3 8 1
v -2 2 -1
v -2 3 -1
v -1 3 -1
v 0 3 -1
v 2 2 -1
v 2 3 -1
v -6 6 -2
v -6 8 -2
v -5 6 -2
v -5 8 -2
v -3 3 -2
v -3 4 -2
v -3 5 -2
v -3 6 -2
v -3 7 -2
v -3 8 -2
v -3 9 -2
v -2 0 -2
v -2 1 -2
v -2 2 -2
v -1 3 -2
v -1 4 -2
v -1 5 -2
v -1 7 -2
v 0 3 -2
v 0 4 -2
v 0 5 -2
v 0 7 -2
v 2 0 -2
v 2 1 -2
v 2 2 -2
v 3 3 -2
v 3 4 -2
v 3 5 -2
v 3 7 -2
v 3 8 -2
v 3 9 -2
v -3 4 -3
v -3 5 -3
v -3 7 -3
v -3 8 -3
v -1 3 -3
v -1 4 -3
v -1 5 -3
v -1 7 -3
v 0 3 -3
v 0 4 -3
v 0 5 -3
v 0 7 -3
v 3 4 -3
v 3 5 -3
v 3 7 -3
v 3 8 -3
v -2 0 2
v 2 0 2
v -2 0 -2
v 2 0 -2
v -1 3 3
v 0 3 3
v -3 3 2
v -1 3 2
v 0 3 2
v 3 3 2
v -2 3 1
v -1 3 1
v 0 3 1
v 2 3 1
v -2 3 -1
v -1 3 -1
v 0 3 -1
v 2 3 -1
v -3 3 -2
v -1 3 -2
v 0 3 -2
v 3 3 -2
v -1 3 -3
v 0 3 -3
v -3 4 3
v -1 4 3
v 0 4 3
v 3 4 3
v -3 4 2
v -1 4 2
v 0 4 2
v 3 4 2
v -3 4 -2
v -1 4 -2
v 0 4 -2
v 3 4 -2
v -3 4 -3
v -1 4 -3
v 0 4 -3
v 3 4 -3
v -6 6 2
v -5 6 2
v -3 6 2
v -6 6 1
v -5 6 1
v -3 6 1
v -6 6 -1
v -5 6 -1
v -3 6 -1
v -6 6 -2
v -5 6 -2
v -3 6 -2
v -3 7 3
v -1 7 3
v 0 7 3
v 3 7 3
v -3 7 2
v -1 7 2
v 0 7 2
v 3 7 2
v -3 7 -2
v -1 7 -2
v 0 7 -2
v 3 7 -2
v -3 7 -3
v -1 7 -3
v 0 7 -3
v 3 7 -3
v -2 2 2
v 2 2 2
v -2 2 1
v 2 2 1
v -2 2 -1
v 2 2 -1
v -2 2 -2
v 2 2 -2
v -3 5 3
v -1 5 3
v 0 5 3
v 3 5 3
v -3 5 2
v -1 5 2
v 0 5 2
v 3 5 2
v -3 5 -2
v -1 5 -2
v 0 5 -2
v 3 5 -2
v -3 5 -3
v -1 5 -3
v 0 5 -3
v 3 5 -3
v -3 8 3
v 3 8 3
v -6 8 2
v -5 8 2
v -3 8 2
v 3 8 2
v -6 8 1
v -5 8 1
v -3 8 1
v -6 8 -1
v -5 8 -1
v -3 8 -1
v -6 8 -2
v -5 8 -2
v -3 8 -2
v 3 8 -2
v -3 8 -3
v 3 8 -3
v -3 9 2
v 3 9 2
v -3 9 -2
v 3 9 -2

# faces
f 5/7/1 2/7/1 1/7/1
f 6/7/1 2/7/1 5/7/1
f 7/7/1 4/7/1 3/7/1
f 8/7/1 4/7/1 7/7/1
f 12/3/1 10/3/1 9/3/1
f 13/3/1 10/3/1 12/3/1
f 15/2/1 12/2/1 11/2/1
f 15/2/1 14/2/1 13/2/1
f 15/2/1 13/2/1 12/2/1
f 16/2/1 14/2/1 15/2/1
f 17/2/1 14/2/1 16/2/1
f 18/2/1 14/2/1 17/2/1
f 19/3/1 17/3/1 16/3/1
f 20/3/1 17/3/1 19/3/1
f 21/3/1 17/3/1 20/3/1
f 22/3/1 17/3/1 21/3/1
f 27/2/1 24/2/1 23/2/1
f 28/2/1 24/2/1 27/2/1
f 29/3/1 21/3/1 20/3/1
f 30/3/1 21/3/1 29/3/1
f 31/2/1 26/2/1 25/2/1
f 32/2/1 26/2/1 31/2/1
f 33/3/1 30/3/1 29/3/1
f 33/3/1 31/3/1 30/3/1
f 33/3/1 29/3/1 28/3/1
f 34/3/1 31/3/1 33/3/1
f 37/6/1 36/6/1 35/6/1
f 38/6/1 36/6/1 37/6/1
f 39/3/1 38/3/1 37/3/1
f 40/3/1 38/3/1 39/3/1
f 41/3/1 38/3/1 40/3/1
f 42/3/1 38/3/1 41/3/1
f 43/3/1 41/3/1 40/3/1
f 44/3/1 41/3/1 43/3/1
f 49/1/1 46/1/1 45/1/1
f 50/1/1 46/1/1 49/1/1
f 51/1/1 48/1/1 47/1/1
f 52/1/1 48/1/1 51/1/1
f 57/1/1 54/1/1 53/1/1
f 58/1/1 54/1/1 57/1/1
f 59/1/1 56/1/1 55/1/1
f 60/1/1 56/1/1 59/1/1
f 61/1/2 62/1/2 65/1/2
f 65/1/2 62/1/2 66/1/2
f 63/1/2 64/1/2 67/1/2
f 67/1/2 64/1/2 68/1/2
f 69/1/2 70/1/2 73/1/2
f 73/1/2 70/1/2 74/1/2
f 71/1/2 72/1/2 75/1/2
f 75/1/2 72/1/2 76/1/2
f 77/6/2 78/6/2 79/6/2
f 79/6/2 78/6/2 80/6/2
f 79/3/2 80/3/2 81/3/2
f 81/3/2 80/3/2 82/3/2
f 82/3/2 80/3/2 83/3/2
f 83/3/2 80/3/2 84/3/2
f 82/3/2 83/3/2 85/3/2
f 85/3/2 83/3/2 86/3/2
f 87/3/2 88/3/2 90/3/2
f 90/3/2 88/3/2 91/3/2
f 89/2/2 90/2/2 93/2/2
f 91/2/2 92/2/2 93/2/2
f 90/2/2 91/2/2 93/2/2
f 93/2/2 92/2/2 94/2/2
f 94/2/2 92/2/2 95/2/2
f 95/2/2 92/2/2 96/2/2
f 94/3/2 95/3/2 98/3/2
f 98/3/2 95/3/2 99/3/2
f 97/2/2 98/2/2 101/2/2
f 98/3/2 99/3/2 102/3/2
f 101/2/2 98/2/2 102/2/2
f 99/2/2 100/2/2 103/2/2
f 102/3/2 99/3/2 103/3/2
f 103/2/2 100/2/2 104/2/2
f 102/3/2 103/3/2 105/3/2
f 105/3/2 103/3/2 106/3/2
f 112/2/3 108/2/3 107/2/3
f 113/2/3 108/2/3 112/2/3
f 114/2/3 110/2/3 109/2/3
f 115/1/3 112/1/3 111/1/3
f 116/2/3 113/2/3 112/2/3
f 116/1/3 112/1/3 115/1/3
f 117/1/3 114/1/3 113/1/3
f 117/2/3 113/2/3 116/2/3
f 118/2/3 110/2/3 114/2/3
f 118/1/3 114/1/3 117/1/3
f 119/2/3 117/2/3 116/2/3
f 120/2/3 117/2/3 119/2/3
f 121/2/3 110/2/3 118/2/3
f 122/2/3 110/2/3 121/2/3
f 125/7/3 124/7/3 123/7/3
f 126/7/3 124/7/3 125/7/3
f 130/6/3 126/6/3 125/6/3
f 131/6/3 126/6/3 130/6/3
f 132/6/3 126/6/3 131/6/3
f 137/3/3 128/3/3 127/3/3
f 138/3/3 128/3/3 137/3/3
f 139/3/3 130/3/3 129/3/3
f 139/3/3 131/3/3 130/3/3
f 140/3/3 131/3/3 139/3/3
f 145/6/3 135/6/3 134/6/3
f 146/3/3 136/3/3 135/3/3
f 146/6/3 135/6/3 145/6/3
f 147/3/3 136/3/3 146/3/3
f 148/3/3 142/3/3 141/3/3
f 149/3/3 142/3/3 148/3/3
f 150/3/3 144/3/3 143/3/3
f 151/3/3 144/3/3 150/3/3
f 152/3/3 133/3/3 132/3/3
f 153/3/3 133/3/3 152/3/3
f 156/3/3 155/3/3 154/3/3
f 157/3/3 156/3/3 154/3/3
f 158/3/3 157/3/3 154/3/3
f 159/3/3 157/3/3 158/3/3
f 162/7/3 161/7/3 160/7/3
f 163/7/3 161/7/3 162/7/3
f 164/6/3 163/6/3 162/6/3
f 165/6/3 163/6/3 164/6/3
f 166/7/4 167/7/4 168/7/4
f 168/7/4 167/7/4 169/7/4
f 168/6/4 169/6/4 170/6/4
f 170/6/4 169/6/4 171/6/4
f 172/3/4 173/3/4 174/3/4
f 172/3/4 174/3/4 175/3/4
f 172/3/4 175/3/4 176/3/4
f 176/3/4 175/3/4 177/3/4
f 178/7/4 179/7/4 180/7/4
f 180/7/4 179/7/4 181/7/4
f 180/6/4 181/6/4 185/6/4
f 185/6/4 181/6/4 186/6/4
f 186/6/4 181/6/4 187/6/4
f 182/3/4 183/3/4 192/3/4
f 192/3/4 183/3/4 193/3/4
f 184/3/4 185/3/4 194/3/4
f 185/3/4 186/3/4 194/3/4
f 194/3/4 186/3/4 195/3/4
f 189/6/4 190/6/4 200/6/4
f 190/3/4 191/3/4 201/3/4
f 200/6/4 190/6/4 201/6/4
f 201/3/4 191/3/4 202/3/4
f 196/3/4 197/3/4 203/3/4
f 203/3/4 197/3/4 204/3/4
f 198/3/4 199/3/4 205/3/4
f 205/3/4 199/3/4 206/3/4
f 187/3/4 188/3/4 207/3/4
f 207/3/4 188/3/4 208/3/4
f 209/2/4 210/2/4 214/2/4
f 214/2/4 210/2/4 215/2/4
f 211/2/4 212/2/4 216/2/4
f 213/1/4 214/1/4 217/1/4
f 214/2/4 215/2/4 218/2/4
f 217/1/4 214/1/4 218/1/4
f 215/1/4 216/1/4 219/1/4
f 218/2/4 215/2/4 219/2/4
f 216/2/4 212/2/4 220/2/4
f 219/1/4 216/1/4 220/1/4
f 218/2/4 219/2/4 221/2/4
f 221/2/4 219/2/4 222/2/4
f 220/2/4 212/2/4 223/2/4
f 223/2/4 212/2/4 224/2/4
f 227/6/5 226/6/5 225/6/5
f 228/6/5 226/6/5 227/6/5
f 232/1/5 230/1/5 229/1/5
f 233/1/5 230/1/5 232/1/5
f 235/3/5 232/3/5 231/3/5
f 236/1/5 233/1/5 232/1/5
f 236/3/5 232/3/5 235/3/5
f 237/3/5 234/3/5 233/3/5
f 237/1/5 233/1/5 236/1/5
f 238/3/5 234/3/5 237/3/5
f 239/3/5 235/3/5 231/3/5
f 242/3/5 234/3/5 238/3/5
f 243/3/5 239/3/5 231/3/5
f 243/3/5 240/3/5 239/3/5
f 244/1/5 241/1/5 240/1/5
f 244/3/5 240/3/5 243/3/5
f 245/3/5 242/3/5 241/3/5
f 245/1/5 241/1/5 244/1/5
f 246/3/5 234/3/5 242/3/5
f 246/3/5 242/3/5 245/3/5
f 247/1/5 245/1/5 244/1/5
f 248/1/5 245/1/5 247/1/5
f 253/2/5 250/2/5 249/2/5
f 254/2/5 250/2/5 253/2/5
f 255/2/5 252/2/5 251/2/5
f 256/2/5 252/2/5 255/2/5
f 261/2/5 258/2/5 257/2/5
f 262/2/5 258/2/5 261/2/5
f 263/2/5 260/2/5 259/2/5
f 264/2/5 260/2/5 263/2/5
f 268/7/5 266/7/5 265/7/5
f 269/6/5 267/6/5 266/6/5
f 269/7/5 266/7/5 268/7/5
f 270/6/5 267/6/5 269/6/5
f 274/7/5 272/7/5 271/7/5
f 275/6/5 273/6/5 272/6/5
f 275/7/5 272/7/5 274/7/5
f 276/6/5 273/6/5 275/6/5
f 281/2/5 278/2/5 277/2/5
f 282/2/5 278/2/5 281/2/5
f 283/2/5 280/2/5 279/2/5
f 284/2/5 280/2/5 283/2/5
f 289/2/5 286/2/5 285/2/5
f 290/2/5 286/2/5 289/2/5
f 291/2/5 288/2/5 287/2/5
f 292/2/5 288/2/5 291/2/5
f 293/3/6 294/3/6 295/3/6
f 295/3/6 294/3/6 296/3/6
f 297/3/6 298/3/6 299/3/6
f 299/3/6 298/3/6 300/3/6
f 301/2/6 302/2/6 305/2/6
f 305/2/6 302/2/6 306/2/6
f 303/2/6 304/2/6 307/2/6
f 307/2/6 304/2/6 308/2/6
f 309/2/6 310/2/6 313/2/6
f 313/2/6 310/2/6 314/2/6
f 311/2/6 312/2/6 315/2/6
f 315/2/6 312/2/6 316/2/6
f 317/2/6 318/2/6 321/2/6
f 321/2/6 318/2/6 322/2/6
f 319/7/6 320/7/6 323/7/6
f 320/6/6 321/6/6 324/6/6
f 323/7/6 320/7/6 324/7/6
f 324/6/6 321/6/6 325/6/6
f 326/7/6 327/7/6 329/7/6
f 327/6/6 328/6/6 330/6/6
f 329/7/6 327/7/6 330/7/6
f 330/6/6 328/6/6 331/6/6
f 331/2/6 332/2/6 333/2/6
f 333/2/6 332/2/6 334/2/6
f 335/3/6 336/3/6 337/3/6
f 337/3/6 336/3/6 338/3/6
