# MagicaVoxel @ Ephtracy

# group
g Block Enemy

# material
mtllib Block Enemy.mtl
usemtl palette

# normals
vn -1 0 0
vn 1 0 0
vn 0 0 1
vn 0 0 -1
vn 0 -1 0
vn 0 1 0

# texcoords
vt 0.533203 0.5
vt 0.544922 0.5
vt 0.580078 0.5
vt 0.591797 0.5
vt 0.595703 0.5

# verts
v -10 14 1
v -10 14 -1
v -10 15 2
v -10 15 1
v -10 15 -1
v -10 15 -2
v -10 16 3
v -10 16 2
v -10 16 -2
v -10 16 -3
v -10 18 3
v -10 18 2
v -10 18 -2
v -10 18 -3
v -10 19 2
v -10 19 1
v -10 19 -1
v -10 19 -2
v -10 20 1
v -10 20 -1
v -9 0 9
v -9 0 8
v -9 0 5
v -9 0 4
v -9 0 -3
v -9 0 -4
v -9 0 -9
v -9 14 1
v -9 14 -1
v -9 15 2
v -9 15 1
v -9 15 -1
v -9 15 -2
v -9 16 3
v -9 16 2
v -9 16 -2
v -9 16 -3
v -9 18 3
v -9 18 2
v -9 18 -2
v -9 18 -3
v -9 19 8
v -9 19 5
v -9 19 2
v -9 19 1
v -9 19 -1
v -9 19 -2
v -9 20 9
v -9 20 5
v -9 20 4
v -9 20 1
v -9 20 -1
v -9 20 -3
v -9 20 -4
v -9 20 -9
v -3 16 10
v -3 16 9
v -3 16 -9
v -3 16 -10
v -3 18 10
v -3 18 9
v -3 18 -9
v -3 18 -10
v -2 15 10
v -2 15 9
v -2 15 -9
v -2 15 -10
v -2 16 10
v -2 16 9
v -2 16 -9
v -2 16 -10
v -2 18 10
v -2 18 9
v -2 18 -9
v -2 18 -10
v -2 19 10
v -2 19 9
v -2 19 -9
v -2 19 -10
v -1 14 10
v -1 14 9
v -1 14 -9
v -1 14 -10
v -1 15 10
v -1 15 9
v -1 15 -9
v -1 15 -10
v -1 19 10
v -1 19 9
v -1 19 -9
v -1 19 -10
v -1 20 10
v -1 20 9
v -1 20 -9
v -1 20 -10
v 1 14 10
v 1 14 9
v 1 14 -9
v 1 14 -10
v 1 15 10
v 1 15 9
v 1 15 -9
v 1 15 -10
v 1 19 10
v 1 19 9
v 1 19 -9
v 1 19 -10
v 1 20 10
v 1 20 9
v 1 20 -9
v 1 20 -10
v 2 15 10
v 2 15 9
v 2 15 -9
v 2 15 -10
v 2 16 10
v 2 16 9
v 2 16 -9
v 2 16 -10
v 2 18 10
v 2 18 9
v 2 18 -9
v 2 18 -10
v 2 19 10
v 2 19 9
v 2 19 -9
v 2 19 -10
v 3 16 10
v 3 16 9
v 3 16 -9
v 3 16 -10
v 3 18 10
v 3 18 9
v 3 18 -9
v 3 18 -10
v 9 0 9
v 9 0 7
v 9 0 6
v 9 0 3
v 9 0 2
v 9 0 -9
v 9 11 9
v 9 11 7
v 9 11 6
v 9 11 3
v 9 12 9
v 9 12 7
v 9 12 6
v 9 12 3
v 9 14 1
v 9 14 -1
v 9 15 2
v 9 15 1
v 9 15 -1
v 9 15 -2
v 9 16 3
v 9 16 2
v 9 16 -2
v 9 16 -3
v 9 18 3
v 9 18 2
v 9 18 -2
v 9 18 -3
v 9 19 2
v 9 19 1
v 9 19 -1
v 9 19 -2
v 9 20 9
v 9 20 7
v 9 20 6
v 9 20 3
v 9 20 2
v 9 20 1
v 9 20 -1
v 9 20 -9
v 10 14 1
v 10 14 -1
v 10 15 2
v 10 15 1
v 10 15 -1
v 10 15 -2
v 10 16 3
v 10 16 2
v 10 16 -2
v 10 16 -3
v 10 18 3
v 10 18 2
v 10 18 -2
v 10 18 -3
v 10 19 2
v 10 19 1
v 10 19 -1
v 10 19 -2
v 10 20 1
v 10 20 -1
v -3 16 10
v -3 18 10
v -2 15 10
v -2 16 10
v -2 18 10
v -2 19 10
v -1 14 10
v -1 15 10
v -1 19 10
v -1 20 10
v 1 14 10
v 1 15 10
v 1 19 10
v 1 20 10
v 2 15 10
v 2 16 10
v 2 18 10
v 2 19 10
v 3 16 10
v 3 18 10
v -9 0 9
v -9 20 9
v -8 0 9
v -8 20 9
v -4 0 9
v -4 20 9
v -3 0 9
v -3 11 9
v -3 12 9
v -3 16 9
v -3 18 9
v -3 20 9
v -2 15 9
v -2 16 9
v -2 18 9
v -2 19 9
v -1 14 9
v -1 15 9
v -1 19 9
v -1 20 9
v 1 14 9
v 1 15 9
v 1 19 9
v 1 20 9
v 2 15 9
v 2 16 9
v 2 18 9
v 2 19 9
v 3 16 9
v 3 18 9
v 6 0 9
v 6 11 9
v 6 12 9
v 6 20 9
v 7 0 9
v 7 11 9
v 7 12 9
v 7 20 9
v 9 0 9
v 9 11 9
v 9 12 9
v 9 20 9
v -10 16 3
v -10 18 3
v -9 16 3
v -9 18 3
v 9 16 3
v 9 18 3
v 10 16 3
v 10 18 3
v -10 15 2
v -10 16 2
v -10 18 2
v -10 19 2
v -9 15 2
v -9 16 2
v -9 18 2
v -9 19 2
v 9 15 2
v 9 16 2
v 9 18 2
v 9 19 2
v 10 15 2
v 10 16 2
v 10 18 2
v 10 19 2
v -10 14 1
v -10 15 1
v -10 19 1
v -10 20 1
v -9 14 1
v -9 15 1
v -9 19 1
v -9 20 1
v 9 14 1
v 9 15 1
v 9 19 1
v 9 20 1
v 10 14 1
v 10 15 1
v 10 19 1
v 10 20 1
v -10 14 -1
v -10 15 -1
v -10 19 -1
v -10 20 -1
v -9 14 -1
v -9 15 -1
v -9 19 -1
v -9 20 -1
v 9 14 -1
v 9 15 -1
v 9 19 -1
v 9 20 -1
v 10 14 -1
v 10 15 -1
v 10 19 -1
v 10 20 -1
v -10 15 -2
v -10 16 -2
v -10 18 -2
v -10 19 -2
v -9 15 -2
v -9 16 -2
v -9 18 -2
v -9 19 -2
v 9 15 -2
v 9 16 -2
v 9 18 -2
v 9 19 -2
v 10 15 -2
v 10 16 -2
v 10 18 -2
v 10 19 -2
v -10 16 -3
v -10 18 -3
v -9 16 -3
v -9 18 -3
v 9 16 -3
v 9 18 -3
v 10 16 -3
v 10 18 -3
v -9 0 -9
v -9 20 -9
v -4 0 -9
v -4 20 -9
v -3 0 -9
v -3 16 -9
v -3 18 -9
v -3 20 -9
v -2 15 -9
v -2 16 -9
v -2 18 -9
v -2 19 -9
v -1 14 -9
v -1 15 -9
v -1 19 -9
v -1 20 -9
v 1 14 -9
v 1 15 -9
v 1 19 -9
v 1 20 -9
v 2 15 -9
v 2 16 -9
v 2 18 -9
v 2 19 -9
v 3 0 -9
v 3 16 -9
v 3 18 -9
v 3 20 -9
v 4 0 -9
v 4 19 -9
v 4 20 -9
v 7 19 -9
v 7 20 -9
v 9 0 -9
v 9 20 -9
v -3 16 -10
v -3 18 -10
v -2 15 -10
v -2 16 -10
v -2 18 -10
v -2 19 -10
v -1 14 -10
v -1 15 -10
v -1 19 -10
v -1 20 -10
v 1 14 -10
v 1 15 -10
v 1 19 -10
v 1 20 -10
v 2 15 -10
v 2 16 -10
v 2 18 -10
v 2 19 -10
v 3 16 -10
v 3 18 -10
v -9 0 9
v -8 0 9
v -4 0 9
v -3 0 9
v 6 0 9
v 7 0 9
v 9 0 9
v -9 0 8
v -8 0 8
v -4 0 8
v -3 0 8
v 6 0 8
v 7 0 8
v 8 0 7
v 9 0 7
v 8 0 6
v 9 0 6
v -9 0 5
v -8 0 5
v -9 0 4
v -8 0 4
v 8 0 3
v 9 0 3
v 8 0 2
v 9 0 2
v -9 0 -3
v -8 0 -3
v -9 0 -4
v -8 0 -4
v -4 0 -8
v -3 0 -8
v 3 0 -8
v 4 0 -8
v -9 0 -9
v -4 0 -9
v -3 0 -9
v 3 0 -9
v 4 0 -9
v 9 0 -9
v -1 14 10
v 1 14 10
v -1 14 9
v 1 14 9
v -10 14 1
v -9 14 1
v 9 14 1
v 10 14 1
v -10 14 -1
v -9 14 -1
v 9 14 -1
v 10 14 -1
v -1 14 -9
v 1 14 -9
v -1 14 -10
v 1 14 -10
v -2 15 10
v -1 15 10
v 1 15 10
v 2 15 10
v -2 15 9
v -1 15 9
v 1 15 9
v 2 15 9
v -10 15 2
v -9 15 2
v 9 15 2
v 10 15 2
v -10 15 1
v -9 15 1
v 9 15 1
v 10 15 1
v -10 15 -1
v -9 15 -1
v 9 15 -1
v 10 15 -1
v -10 15 -2
v -9 15 -2
v 9 15 -2
v 10 15 -2
v -2 15 -9
v -1 15 -9
v 1 15 -9
v 2 15 -9
v -2 15 -10
v -1 15 -10
v 1 15 -10
v 2 15 -10
v -3 16 10
v -2 16 10
v 2 16 10
v 3 16 10
v -3 16 9
v -2 16 9
v 2 16 9
v 3 16 9
v -10 16 3
v -9 16 3
v 9 16 3
v 10 16 3
v -10 16 2
v -9 16 2
v 9 16 2
v 10 16 2
v -10 16 -2
v -9 16 -2
v 9 16 -2
v 10 16 -2
v -10 16 -3
v -9 16 -3
v 9 16 -3
v 10 16 -3
v -3 16 -9
v -2 16 -9
v 2 16 -9
v 3 16 -9
v -3 16 -10
v -2 16 -10
v 2 16 -10
v 3 16 -10
v -3 18 10
v -2 18 10
v 2 18 10
v 3 18 10
v -3 18 9
v -2 18 9
v 2 18 9
v 3 18 9
v -10 18 3
v -9 18 3
v 9 18 3
v 10 18 3
v -10 18 2
v -9 18 2
v 9 18 2
v 10 18 2
v -10 18 -2
v -9 18 -2
v 9 18 -2
v 10 18 -2
v -10 18 -3
v -9 18 -3
v 9 18 -3
v 10 18 -3
v -3 18 -9
v -2 18 -9
v 2 18 -9
v 3 18 -9
v -3 18 -10
v -2 18 -10
v 2 18 -10
v 3 18 -10
v -2 19 10
v -1 19 10
v 1 19 10
v 2 19 10
v -2 19 9
v -1 19 9
v 1 19 9
v 2 19 9
v -10 19 2
v -9 19 2
v 9 19 2
v 10 19 2
v -10 19 1
v -9 19 1
v 9 19 1
v 10 19 1
v -10 19 -1
v -9 19 -1
v 9 19 -1
v 10 19 -1
v -10 19 -2
v -9 19 -2
v 9 19 -2
v 10 19 -2
v -2 19 -9
v -1 19 -9
v 1 19 -9
v 2 19 -9
v -2 19 -10
v -1 19 -10
v 1 19 -10
v 2 19 -10
v -1 20 10
v 1 20 10
v -9 20 9
v -8 20 9
v -4 20 9
v -3 20 9
v -1 20 9
v 1 20 9
v 6 20 9
v 7 20 9
v 9 20 9
v -1 20 8
v 0 20 8
v 1 20 8
v 2 20 8
v 3 20 8
v -3 20 7
v -1 20 7
v 0 20 7
v 2 20 7
v 3 20 7
v 6 20 7
v 7 20 7
v 9 20 7
v -7 20 6
v -6 20 6
v -3 20 6
v -1 20 6
v 0 20 6
v 5 20 6
v 6 20 6
v 7 20 6
v 9 20 6
v -9 20 5
v -8 20 5
v -7 20 5
v -6 20 5
v -4 20 5
v -9 20 4
v -7 20 4
v -6 20 4
v -4 20 4
v 7 20 3
v 9 20 3
v -2 20 2
v -1 20 2
v 0 20 2
v 2 20 2
v 6 20 2
v 9 20 2
v -10 20 1
v -9 20 1
v -8 20 1
v -6 20 1
v -5 20 1
v -1 20 1
v 1 20 1
v 8 20 1
v 9 20 1
v 10 20 1
v -10 20 -1
v -9 20 -1
v -8 20 -1
v -1 20 -1
v 1 20 -1
v 8 20 -1
v 9 20 -1
v 10 20 -1
v -3 20 -2
v -2 20 -2
v 2 20 -2
v 5 20 -2
v -9 20 -3
v -7 20 -3
v -5 20 -3
v -4 20 -3
v -3 20 -3
v 4 20 -3
v -9 20 -4
v -7 20 -4
v -6 20 -4
v -4 20 -4
v -3 20 -4
v 3 20 -4
v 6 20 -5
v 7 20 -5
v -7 20 -6
v -6 20 -6
v -1 20 -8
v 1 20 -8
v -9 20 -9
v -4 20 -9
v -3 20 -9
v -1 20 -9
v 1 20 -9
v 3 20 -9
v 4 20 -9
v 7 20 -9
v 9 20 -9
v -1 20 -10
v 1 20 -10

# faces
f 4/2/1 2/2/1 1/2/1
f 5/2/1 2/2/1 4/2/1
f 8/2/1 4/2/1 3/2/1
f 8/2/1 6/2/1 5/2/1
f 8/2/1 5/2/1 4/2/1
f 9/2/1 6/2/1 8/2/1
f 11/2/1 8/2/1 7/2/1
f 11/2/1 10/2/1 9/2/1
f 11/2/1 9/2/1 8/2/1
f 12/2/1 10/2/1 11/2/1
f 13/2/1 10/2/1 12/2/1
f 14/2/1 10/2/1 13/2/1
f 15/2/1 13/2/1 12/2/1
f 16/2/1 13/2/1 15/2/1
f 17/2/1 13/2/1 16/2/1
f 18/2/1 13/2/1 17/2/1
f 19/2/1 17/2/1 16/2/1
f 20/2/1 17/2/1 19/2/1
f 28/1/1 25/1/1 24/1/1
f 29/1/1 25/1/1 28/1/1
f 30/1/1 28/1/1 24/1/1
f 31/1/1 28/1/1 30/1/1
f 32/1/1 25/1/1 29/1/1
f 33/1/1 25/1/1 32/1/1
f 34/1/1 30/1/1 24/1/1
f 35/1/1 30/1/1 34/1/1
f 36/1/1 25/1/1 33/1/1
f 37/4/1 26/4/1 25/4/1
f 37/1/1 25/1/1 36/1/1
f 38/1/1 34/1/1 24/1/1
f 41/4/1 26/4/1 37/4/1
f 42/5/1 22/5/1 21/5/1
f 42/1/1 23/1/1 22/1/1
f 43/4/1 24/4/1 23/4/1
f 43/1/1 23/1/1 42/1/1
f 44/1/1 39/1/1 38/1/1
f 47/1/1 41/1/1 40/1/1
f 48/5/1 42/5/1 21/5/1
f 48/5/1 43/5/1 42/5/1
f 49/4/1 24/4/1 43/4/1
f 49/5/1 43/5/1 48/5/1
f 50/1/1 45/1/1 44/1/1
f 50/4/1 24/4/1 49/4/1
f 50/1/1 38/1/1 24/1/1
f 50/1/1 44/1/1 38/1/1
f 51/1/1 45/1/1 50/1/1
f 52/1/1 47/1/1 46/1/1
f 53/4/1 26/4/1 41/4/1
f 53/1/1 47/1/1 52/1/1
f 53/1/1 41/1/1 47/1/1
f 54/1/1 27/1/1 26/1/1
f 54/4/1 26/4/1 53/4/1
f 55/1/1 27/1/1 54/1/1
f 60/2/1 57/2/1 56/2/1
f 61/2/1 57/2/1 60/2/1
f 62/2/1 59/2/1 58/2/1
f 63/2/1 59/2/1 62/2/1
f 68/2/1 65/2/1 64/2/1
f 69/2/1 65/2/1 68/2/1
f 70/2/1 67/2/1 66/2/1
f 71/2/1 67/2/1 70/2/1
f 76/2/1 73/2/1 72/2/1
f 77/2/1 73/2/1 76/2/1
f 78/2/1 75/2/1 74/2/1
f 79/2/1 75/2/1 78/2/1
f 84/2/1 81/2/1 80/2/1
f 85/2/1 81/2/1 84/2/1
f 86/2/1 83/2/1 82/2/1
f 87/2/1 83/2/1 86/2/1
f 92/2/1 89/2/1 88/2/1
f 93/2/1 89/2/1 92/2/1
f 94/2/1 91/2/1 90/2/1
f 95/2/1 91/2/1 94/2/1
f 96/2/2 97/2/2 100/2/2
f 100/2/2 97/2/2 101/2/2
f 98/2/2 99/2/2 102/2/2
f 102/2/2 99/2/2 103/2/2
f 104/2/2 105/2/2 108/2/2
f 108/2/2 105/2/2 109/2/2
f 106/2/2 107/2/2 110/2/2
f 110/2/2 107/2/2 111/2/2
f 112/2/2 113/2/2 116/2/2
f 116/2/2 113/2/2 117/2/2
f 114/2/2 115/2/2 118/2/2
f 118/2/2 115/2/2 119/2/2
f 120/2/2 121/2/2 124/2/2
f 124/2/2 121/2/2 125/2/2
f 122/2/2 123/2/2 126/2/2
f 126/2/2 123/2/2 127/2/2
f 128/2/2 129/2/2 132/2/2
f 132/2/2 129/2/2 133/2/2
f 130/2/2 131/2/2 134/2/2
f 134/2/2 131/2/2 135/2/2
f 136/1/2 137/1/2 142/1/2
f 137/5/2 138/5/2 143/5/2
f 142/1/2 137/1/2 143/1/2
f 138/1/2 139/1/2 144/1/2
f 143/5/2 138/5/2 144/5/2
f 139/4/2 140/4/2 145/4/2
f 144/1/2 139/1/2 145/1/2
f 142/4/2 143/4/2 146/4/2
f 143/4/2 144/4/2 146/4/2
f 144/4/2 145/4/2 146/4/2
f 146/4/2 145/4/2 147/4/2
f 147/4/2 145/4/2 148/4/2
f 145/4/2 140/4/2 149/4/2
f 148/4/2 145/4/2 149/4/2
f 140/1/2 141/1/2 150/1/2
f 150/1/2 141/1/2 151/1/2
f 149/4/2 140/4/2 152/4/2
f 140/1/2 150/1/2 152/1/2
f 152/1/2 150/1/2 153/1/2
f 151/1/2 141/1/2 154/1/2
f 154/1/2 141/1/2 155/1/2
f 148/1/2 149/1/2 156/1/2
f 149/4/2 152/4/2 156/4/2
f 156/4/2 152/4/2 157/4/2
f 155/1/2 141/1/2 158/1/2
f 158/1/2 141/1/2 159/1/2
f 148/1/2 156/1/2 160/1/2
f 159/1/2 141/1/2 163/1/2
f 160/4/2 161/4/2 164/4/2
f 162/1/2 163/1/2 167/1/2
f 146/1/2 147/1/2 168/1/2
f 147/5/2 148/5/2 169/5/2
f 168/1/2 147/1/2 169/1/2
f 148/1/2 160/1/2 170/1/2
f 169/5/2 148/5/2 170/5/2
f 160/4/2 164/4/2 171/4/2
f 170/1/2 160/1/2 171/1/2
f 164/1/2 165/1/2 172/1/2
f 171/4/2 164/4/2 172/4/2
f 172/1/2 165/1/2 173/1/2
f 166/1/2 167/1/2 174/1/2
f 163/1/2 141/1/2 175/1/2
f 174/1/2 167/1/2 175/1/2
f 167/1/2 163/1/2 175/1/2
f 176/2/2 177/2/2 179/2/2
f 179/2/2 177/2/2 180/2/2
f 178/2/2 179/2/2 183/2/2
f 180/2/2 181/2/2 183/2/2
f 179/2/2 180/2/2 183/2/2
f 183/2/2 181/2/2 184/2/2
f 182/2/2 183/2/2 186/2/2
f 184/2/2 185/2/2 186/2/2
f 183/2/2 184/2/2 186/2/2
f 186/2/2 185/2/2 187/2/2
f 187/2/2 185/2/2 188/2/2
f 188/2/2 185/2/2 189/2/2
f 187/2/2 188/2/2 190/2/2
f 190/2/2 188/2/2 191/2/2
f 191/2/2 188/2/2 192/2/2
f 192/2/2 188/2/2 193/2/2
f 191/2/2 192/2/2 194/2/2
f 194/2/2 192/2/2 195/2/2
f 199/2/3 197/2/3 196/2/3
f 200/2/3 197/2/3 199/2/3
f 203/2/3 199/2/3 198/2/3
f 203/2/3 201/2/3 200/2/3
f 203/2/3 200/2/3 199/2/3
f 204/2/3 201/2/3 203/2/3
f 206/2/3 203/2/3 202/2/3
f 206/2/3 205/2/3 204/2/3
f 206/2/3 204/2/3 203/2/3
f 207/2/3 205/2/3 206/2/3
f 208/2/3 205/2/3 207/2/3
f 209/2/3 205/2/3 208/2/3
f 210/2/3 208/2/3 207/2/3
f 211/2/3 208/2/3 210/2/3
f 212/2/3 208/2/3 211/2/3
f 213/2/3 208/2/3 212/2/3
f 214/2/3 212/2/3 211/2/3
f 215/2/3 212/2/3 214/2/3
f 218/5/3 217/5/3 216/5/3
f 219/5/3 217/5/3 218/5/3
f 220/1/3 219/1/3 218/1/3
f 221/1/3 219/1/3 220/1/3
f 222/4/3 221/4/3 220/4/3
f 223/4/3 221/4/3 222/4/3
f 224/4/3 221/4/3 223/4/3
f 225/4/3 221/4/3 224/4/3
f 226/4/3 221/4/3 225/4/3
f 227/4/3 221/4/3 226/4/3
f 228/1/3 225/1/3 224/1/3
f 229/1/3 225/1/3 228/1/3
f 230/1/3 227/1/3 226/1/3
f 231/1/3 227/1/3 230/1/3
f 232/1/3 228/1/3 224/1/3
f 233/1/3 228/1/3 232/1/3
f 234/1/3 227/1/3 231/1/3
f 235/1/3 227/1/3 234/1/3
f 236/1/3 232/1/3 224/1/3
f 240/1/3 237/1/3 236/1/3
f 243/1/3 239/1/3 238/1/3
f 244/1/3 241/1/3 240/1/3
f 245/1/3 243/1/3 242/1/3
f 246/1/3 223/1/3 222/1/3
f 247/4/3 224/4/3 223/4/3
f 247/1/3 223/1/3 246/1/3
f 248/1/3 245/1/3 244/1/3
f 248/4/3 224/4/3 247/4/3
f 248/1/3 236/1/3 224/1/3
f 248/1/3 244/1/3 240/1/3
f 248/1/3 240/1/3 236/1/3
f 249/1/3 243/1/3 245/1/3
f 249/1/3 245/1/3 248/1/3
f 249/1/3 239/1/3 243/1/3
f 250/4/3 247/4/3 246/4/3
f 250/4/3 248/4/3 247/4/3
f 250/4/3 249/4/3 248/4/3
f 251/4/3 249/4/3 250/4/3
f 252/4/3 249/4/3 251/4/3
f 253/4/3 249/4/3 252/4/3
f 254/1/3 251/1/3 250/1/3
f 255/4/3 252/4/3 251/4/3
f 255/1/3 251/1/3 254/1/3
f 256/1/3 253/1/3 252/1/3
f 256/4/3 252/4/3 255/4/3
f 257/1/3 253/1/3 256/1/3
f 260/2/3 259/2/3 258/2/3
f 261/2/3 259/2/3 260/2/3
f 264/2/3 263/2/3 262/2/3
f 265/2/3 263/2/3 264/2/3
f 270/2/3 267/2/3 266/2/3
f 271/2/3 267/2/3 270/2/3
f 272/2/3 269/2/3 268/2/3
f 273/2/3 269/2/3 272/2/3
f 278/2/3 275/2/3 274/2/3
f 279/2/3 275/2/3 278/2/3
f 280/2/3 277/2/3 276/2/3
f 281/2/3 277/2/3 280/2/3
f 286/2/3 283/2/3 282/2/3
f 287/2/3 283/2/3 286/2/3
f 288/2/3 285/2/3 284/2/3
f 289/2/3 285/2/3 288/2/3
f 294/2/3 291/2/3 290/2/3
f 295/2/3 291/2/3 294/2/3
f 296/2/3 293/2/3 292/2/3
f 297/2/3 293/2/3 296/2/3
f 298/2/4 299/2/4 302/2/4
f 302/2/4 299/2/4 303/2/4
f 300/2/4 301/2/4 304/2/4
f 304/2/4 301/2/4 305/2/4
f 306/2/4 307/2/4 310/2/4
f 310/2/4 307/2/4 311/2/4
f 308/2/4 309/2/4 312/2/4
f 312/2/4 309/2/4 313/2/4
f 314/2/4 315/2/4 318/2/4
f 318/2/4 315/2/4 319/2/4
f 316/2/4 317/2/4 320/2/4
f 320/2/4 317/2/4 321/2/4
f 322/2/4 323/2/4 326/2/4
f 326/2/4 323/2/4 327/2/4
f 324/2/4 325/2/4 328/2/4
f 328/2/4 325/2/4 329/2/4
f 330/2/4 331/2/4 332/2/4
f 332/2/4 331/2/4 333/2/4
f 334/2/4 335/2/4 336/2/4
f 336/2/4 335/2/4 337/2/4
f 338/1/4 339/1/4 340/1/4
f 340/1/4 339/1/4 341/1/4
f 340/4/4 341/4/4 342/4/4
f 342/4/4 341/4/4 343/4/4
f 343/4/4 341/4/4 344/4/4
f 344/4/4 341/4/4 345/4/4
f 342/1/4 343/1/4 346/1/4
f 346/1/4 343/1/4 347/1/4
f 344/1/4 345/1/4 348/1/4
f 348/1/4 345/1/4 349/1/4
f 342/1/4 346/1/4 350/1/4
f 350/1/4 346/1/4 351/1/4
f 349/1/4 345/1/4 352/1/4
f 352/1/4 345/1/4 353/1/4
f 342/1/4 350/1/4 354/1/4
f 354/1/4 355/1/4 358/1/4
f 356/1/4 357/1/4 361/1/4
f 342/1/4 354/1/4 362/1/4
f 358/1/4 359/1/4 362/1/4
f 354/1/4 358/1/4 362/1/4
f 362/1/4 359/1/4 363/1/4
f 360/1/4 361/1/4 364/1/4
f 361/1/4 357/1/4 365/1/4
f 364/1/4 361/1/4 365/1/4
f 362/4/4 363/4/4 366/4/4
f 363/4/4 364/4/4 366/4/4
f 364/4/4 365/4/4 366/4/4
f 366/4/4 365/4/4 367/4/4
f 367/4/4 365/4/4 368/4/4
f 366/1/4 367/1/4 369/1/4
f 367/5/4 368/5/4 369/5/4
f 369/5/4 368/5/4 370/5/4
f 366/1/4 369/1/4 371/1/4
f 369/1/4 370/1/4 371/1/4
f 371/1/4 370/1/4 372/1/4
f 373/2/4 374/2/4 376/2/4
f 376/2/4 374/2/4 377/2/4
f 375/2/4 376/2/4 380/2/4
f 377/2/4 378/2/4 380/2/4
f 376/2/4 377/2/4 380/2/4
f 380/2/4 378/2/4 381/2/4
f 379/2/4 380/2/4 383/2/4
f 381/2/4 382/2/4 383/2/4
f 380/2/4 381/2/4 383/2/4
f 383/2/4 382/2/4 384/2/4
f 384/2/4 382/2/4 385/2/4
f 385/2/4 382/2/4 386/2/4
f 384/2/4 385/2/4 387/2/4
f 387/2/4 385/2/4 388/2/4
f 388/2/4 385/2/4 389/2/4
f 389/2/4 385/2/4 390/2/4
f 388/2/4 389/2/4 391/2/4
f 391/2/4 389/2/4 392/2/4
f 400/5/5 394/5/5 393/5/5
f 401/1/5 395/1/5 394/1/5
f 401/5/5 394/5/5 400/5/5
f 402/4/5 396/4/5 395/4/5
f 402/1/5 395/1/5 401/1/5
f 403/1/5 397/1/5 396/1/5
f 403/4/5 396/4/5 402/4/5
f 404/4/5 398/4/5 397/4/5
f 404/1/5 397/1/5 403/1/5
f 405/1/5 399/1/5 398/1/5
f 405/4/5 398/4/5 404/4/5
f 406/1/5 404/1/5 403/1/5
f 406/1/5 399/1/5 405/1/5
f 406/1/5 405/1/5 404/1/5
f 406/1/5 403/1/5 402/1/5
f 406/1/5 402/1/5 401/1/5
f 406/1/5 401/1/5 400/1/5
f 407/1/5 399/1/5 406/1/5
f 408/1/5 406/1/5 400/1/5
f 408/5/5 407/5/5 406/5/5
f 409/5/5 407/5/5 408/5/5
f 410/1/5 408/1/5 400/1/5
f 410/1/5 409/1/5 408/1/5
f 411/1/5 409/1/5 410/1/5
f 412/4/5 411/4/5 410/4/5
f 413/1/5 409/1/5 411/1/5
f 413/4/5 411/4/5 412/4/5
f 414/1/5 413/1/5 412/1/5
f 414/1/5 409/1/5 413/1/5
f 415/1/5 409/1/5 414/1/5
f 416/1/5 414/1/5 412/1/5
f 416/4/5 415/4/5 414/4/5
f 417/4/5 415/4/5 416/4/5
f 418/1/5 416/1/5 412/1/5
f 418/1/5 417/1/5 416/1/5
f 419/1/5 417/1/5 418/1/5
f 420/4/5 419/4/5 418/4/5
f 421/1/5 417/1/5 419/1/5
f 421/4/5 419/4/5 420/4/5
f 422/1/5 421/1/5 420/1/5
f 422/1/5 417/1/5 421/1/5
f 423/1/5 417/1/5 422/1/5
f 424/1/5 417/1/5 423/1/5
f 425/1/5 417/1/5 424/1/5
f 426/1/5 422/1/5 420/1/5
f 427/4/5 423/4/5 422/4/5
f 427/1/5 422/1/5 426/1/5
f 428/1/5 424/1/5 423/1/5
f 428/4/5 423/4/5 427/4/5
f 429/4/5 425/4/5 424/4/5
f 429/1/5 424/1/5 428/1/5
f 430/1/5 417/1/5 425/1/5
f 430/4/5 425/4/5 429/4/5
f 431/1/5 417/1/5 430/1/5
f 434/2/5 433/2/5 432/2/5
f 435/2/5 433/2/5 434/2/5
f 440/2/5 437/2/5 436/2/5
f 441/2/5 437/2/5 440/2/5
f 442/2/5 439/2/5 438/2/5
f 443/2/5 439/2/5 442/2/5
f 446/2/5 445/2/5 444/2/5
f 447/2/5 445/2/5 446/2/5
f 452/2/5 449/2/5 448/2/5
f 453/2/5 449/2/5 452/2/5
f 454/2/5 451/2/5 450/2/5
f 455/2/5 451/2/5 454/2/5
f 460/2/5 457/2/5 456/2/5
f 461/2/5 457/2/5 460/2/5
f 462/2/5 459/2/5 458/2/5
f 463/2/5 459/2/5 462/2/5
f 468/2/5 465/2/5 464/2/5
f 469/2/5 465/2/5 468/2/5
f 470/2/5 467/2/5 466/2/5
f 471/2/5 467/2/5 470/2/5
f 476/2/5 473/2/5 472/2/5
f 477/2/5 473/2/5 476/2/5
f 478/2/5 475/2/5 474/2/5
f 479/2/5 475/2/5 478/2/5
f 484/2/5 481/2/5 480/2/5
f 485/2/5 481/2/5 484/2/5
f 486/2/5 483/2/5 482/2/5
f 487/2/5 483/2/5 486/2/5
f 492/2/5 489/2/5 488/2/5
f 493/2/5 489/2/5 492/2/5
f 494/2/5 491/2/5 490/2/5
f 495/2/5 491/2/5 494/2/5
f 500/2/5 497/2/5 496/2/5
f 501/2/5 497/2/5 500/2/5
f 502/2/5 499/2/5 498/2/5
f 503/2/5 499/2/5 502/2/5
f 508/2/5 505/2/5 504/2/5
f 509/2/5 505/2/5 508/2/5
f 510/2/5 507/2/5 506/2/5
f 511/2/5 507/2/5 510/2/5
f 512/2/6 513/2/6 516/2/6
f 516/2/6 513/2/6 517/2/6
f 514/2/6 515/2/6 518/2/6
f 518/2/6 515/2/6 519/2/6
f 520/2/6 521/2/6 524/2/6
f 524/2/6 521/2/6 525/2/6
f 522/2/6 523/2/6 526/2/6
f 526/2/6 523/2/6 527/2/6
f 528/2/6 529/2/6 532/2/6
f 532/2/6 529/2/6 533/2/6
f 530/2/6 531/2/6 534/2/6
f 534/2/6 531/2/6 535/2/6
f 536/2/6 537/2/6 540/2/6
f 540/2/6 537/2/6 541/2/6
f 538/2/6 539/2/6 542/2/6
f 542/2/6 539/2/6 543/2/6
f 544/2/6 545/2/6 548/2/6
f 548/2/6 545/2/6 549/2/6
f 546/2/6 547/2/6 550/2/6
f 550/2/6 547/2/6 551/2/6
f 552/2/6 553/2/6 556/2/6
f 556/2/6 553/2/6 557/2/6
f 554/2/6 555/2/6 558/2/6
f 558/2/6 555/2/6 559/2/6
f 560/2/6 561/2/6 564/2/6
f 564/2/6 561/2/6 565/2/6
f 562/2/6 563/2/6 566/2/6
f 566/2/6 563/2/6 567/2/6
f 568/2/6 569/2/6 572/2/6
f 572/2/6 569/2/6 573/2/6
f 570/2/6 571/2/6 574/2/6
f 574/2/6 571/2/6 575/2/6
f 576/2/6 577/2/6 582/2/6
f 582/2/6 577/2/6 583/2/6
f 581/1/6 582/1/6 587/1/6
f 582/2/6 583/2/6 587/2/6
f 587/2/6 583/2/6 588/2/6
f 583/1/6 584/1/6 589/1/6
f 588/2/6 583/2/6 589/2/6
f 589/1/6 584/1/6 590/1/6
f 590/1/6 584/1/6 591/1/6
f 580/4/6 581/4/6 592/4/6
f 581/1/6 587/1/6 592/1/6
f 587/5/6 588/5/6 593/5/6
f 592/1/6 587/1/6 593/1/6
f 588/1/6 589/1/6 594/1/6
f 593/5/6 588/5/6 594/5/6
f 589/1/6 590/1/6 594/1/6
f 590/5/6 591/5/6 595/5/6
f 594/1/6 590/1/6 595/1/6
f 591/1/6 584/1/6 596/1/6
f 595/5/6 591/5/6 596/5/6
f 584/4/6 585/4/6 597/4/6
f 596/1/6 584/1/6 597/1/6
f 585/1/6 586/1/6 598/1/6
f 597/4/6 585/4/6 598/4/6
f 598/1/6 586/1/6 599/1/6
f 579/1/6 580/1/6 600/1/6
f 600/1/6 580/1/6 601/1/6
f 580/4/6 592/4/6 602/4/6
f 592/4/6 593/4/6 602/4/6
f 593/5/6 594/5/6 603/5/6
f 602/4/6 593/4/6 603/4/6
f 594/4/6 595/4/6 604/4/6
f 603/5/6 594/5/6 604/5/6
f 596/4/6 597/4/6 604/4/6
f 595/4/6 596/4/6 604/4/6
f 597/4/6 598/4/6 604/4/6
f 604/4/6 598/4/6 605/4/6
f 605/4/6 598/4/6 606/4/6
f 598/5/6 599/5/6 607/5/6
f 606/4/6 598/4/6 607/4/6
f 607/5/6 599/5/6 608/5/6
f 578/5/6 579/5/6 609/5/6
f 579/1/6 600/1/6 610/1/6
f 609/5/6 579/5/6 610/5/6
f 600/5/6 601/5/6 611/5/6
f 610/1/6 600/1/6 611/1/6
f 601/1/6 580/1/6 612/1/6
f 611/5/6 601/5/6 612/5/6
f 580/4/6 602/4/6 613/4/6
f 612/1/6 580/1/6 613/1/6
f 610/4/6 611/4/6 614/4/6
f 611/4/6 612/4/6 614/4/6
f 612/4/6 613/4/6 614/4/6
f 609/4/6 610/4/6 614/4/6
f 614/4/6 613/4/6 615/4/6
f 615/4/6 613/4/6 616/4/6
f 613/4/6 602/4/6 617/4/6
f 616/4/6 613/4/6 617/4/6
f 607/1/6 608/1/6 618/1/6
f 606/4/6 607/4/6 618/4/6
f 618/1/6 608/1/6 619/1/6
f 602/1/6 603/1/6 620/1/6
f 603/5/6 604/5/6 621/5/6
f 620/1/6 603/1/6 621/1/6
f 604/1/6 605/1/6 622/1/6
f 621/5/6 604/5/6 622/5/6
f 622/1/6 605/1/6 623/1/6
f 605/5/6 606/5/6 624/5/6
f 606/4/6 618/4/6 624/4/6
f 618/4/6 619/4/6 624/4/6
f 624/4/6 619/4/6 625/4/6
f 614/1/6 615/1/6 627/1/6
f 627/1/6 615/1/6 628/1/6
f 615/5/6 616/5/6 629/5/6
f 616/1/6 617/1/6 629/1/6
f 629/1/6 617/1/6 630/1/6
f 620/5/6 621/5/6 631/5/6
f 622/5/6 623/5/6 631/5/6
f 621/5/6 622/5/6 631/5/6
f 631/5/6 623/5/6 632/5/6
f 624/1/6 625/1/6 633/1/6
f 633/1/6 625/1/6 634/1/6
f 627/2/6 628/2/6 636/2/6
f 626/2/6 627/2/6 636/2/6
f 636/2/6 628/2/6 637/2/6
f 628/1/6 615/1/6 638/1/6
f 637/2/6 628/2/6 638/2/6
f 631/4/6 632/4/6 639/4/6
f 620/5/6 631/5/6 639/5/6
f 632/5/6 623/5/6 640/5/6
f 639/4/6 632/4/6 640/4/6
f 633/2/6 634/2/6 641/2/6
f 624/1/6 633/1/6 641/1/6
f 634/2/6 635/2/6 641/2/6
f 641/2/6 635/2/6 642/2/6
f 642/2/6 635/2/6 643/2/6
f 617/4/6 602/4/6 644/4/6
f 602/1/6 620/1/6 644/1/6
f 639/5/6 640/5/6 645/5/6
f 644/1/6 620/1/6 645/1/6
f 620/5/6 639/5/6 645/5/6
f 640/5/6 623/5/6 646/5/6
f 645/5/6 640/5/6 646/5/6
f 623/1/6 605/1/6 646/1/6
f 605/5/6 624/5/6 647/5/6
f 646/1/6 605/1/6 647/1/6
f 637/1/6 638/1/6 648/1/6
f 638/1/6 615/1/6 649/1/6
f 648/1/6 638/1/6 649/1/6
f 629/5/6 630/5/6 649/5/6
f 615/5/6 629/5/6 649/5/6
f 630/1/6 617/1/6 650/1/6
f 649/5/6 630/5/6 650/5/6
f 617/4/6 644/4/6 651/4/6
f 650/1/6 617/1/6 651/1/6
f 644/5/6 645/5/6 652/5/6
f 651/4/6 644/4/6 652/4/6
f 646/5/6 647/5/6 652/5/6
f 645/5/6 646/5/6 652/5/6
f 652/5/6 647/5/6 653/5/6
f 650/4/6 651/4/6 654/4/6
f 649/4/6 650/4/6 654/4/6
f 652/4/6 653/4/6 654/4/6
f 651/4/6 652/4/6 654/4/6
f 648/4/6 649/4/6 654/4/6
f 654/4/6 653/4/6 655/4/6
f 655/4/6 653/4/6 656/4/6
f 656/4/6 653/4/6 657/4/6
f 657/4/6 653/4/6 658/4/6
f 658/4/6 653/4/6 659/4/6
f 653/5/6 647/5/6 660/5/6
f 647/5/6 624/5/6 660/5/6
f 641/1/6 642/1/6 660/1/6
f 624/1/6 641/1/6 660/1/6
f 660/1/6 642/1/6 661/1/6
f 654/1/6 655/1/6 662/1/6
f 655/5/6 656/5/6 662/5/6
f 656/1/6 657/1/6 663/1/6
f 662/5/6 656/5/6 663/5/6
f 658/1/6 659/1/6 664/1/6
f 664/1/6 659/1/6 665/1/6
f 654/1/6 662/1/6 666/1/6
f 662/1/6 663/1/6 666/1/6
f 663/1/6 657/1/6 667/1/6
f 666/1/6 663/1/6 667/1/6
f 657/4/6 658/4/6 667/4/6
f 658/1/6 664/1/6 668/1/6
f 667/4/6 658/4/6 668/4/6
f 664/2/6 665/2/6 669/2/6
f 668/1/6 664/1/6 669/1/6
f 665/1/6 659/1/6 670/1/6
f 669/2/6 665/2/6 670/2/6
f 659/4/6 653/4/6 671/4/6
f 670/1/6 659/1/6 671/1/6
f 660/5/6 661/5/6 672/5/6
f 671/4/6 653/4/6 672/4/6
f 653/5/6 660/5/6 672/5/6
f 661/1/6 642/1/6 673/1/6
f 672/5/6 661/5/6 673/5/6
f 673/1/6 642/1/6 674/1/6
f 669/2/6 670/2/6 675/2/6
f 675/2/6 670/2/6 676/2/6
