# MagicaVoxel @ Ephtracy

# group
g Tower A Top

# material
mtllib Tower A Top.mtl
usemtl palette

# normals
vn -1 0 0
vn 1 0 0
vn 0 0 1
vn 0 0 -1
vn 0 -1 0
vn 0 1 0

# texcoords
vt 0.318359 0.5
vt 0.576172 0.5
vt 0.587891 0.5
vt 0.595703 0.5

# verts
v -4 1 0.5
v -4 1 -0.5
v -4 2 0.5
v -4 2 -0.5
v -4 5 3.5
v -4 5 2.5
v -4 5 1.5
v -4 5 -2.5
v -4 5 -3.5
v -4 5 -4.5
v -4 5 -5.5
v -4 5 -6.5
v -4 8 3.5
v -4 8 2.5
v -4 8 1.5
v -4 8 -2.5
v -4 8 -3.5
v -4 8 -4.5
v -4 8 -5.5
v -4 8 -6.5
v -3 0 1.5
v -3 0 -1.5
v -3 1 0.5
v -3 1 -0.5
v -3 2 0.5
v -3 2 -0.5
v -3 3 3.5
v -3 3 2.5
v -3 3 1.5
v -3 3 -1.5
v -3 3 -2.5
v -3 3 -3.5
v -3 3 -4.5
v -3 3 -5.5
v -3 3 -6.5
v -3 5 3.5
v -3 5 2.5
v -3 5 1.5
v -3 5 -2.5
v -3 5 -3.5
v -3 5 -4.5
v -3 5 -5.5
v -3 5 -6.5
v -3 8 3.5
v -3 8 2.5
v -3 8 1.5
v -3 8 -2.5
v -3 8 -3.5
v -3 8 -4.5
v -3 8 -5.5
v -3 8 -6.5
v -3 10 3.5
v -3 10 2.5
v -3 10 1.5
v -3 10 -2.5
v -3 10 -3.5
v -3 10 -4.5
v -3 10 -5.5
v -3 10 -6.5
v -2 0 2.5
v -2 0 1.5
v -2 0 -1.5
v -2 0 -2.5
v -2 1 -2.5
v -2 1 -3.5
v -2 3 2.5
v -2 3 1.5
v -2 3 -1.5
v -2 3 -2.5
v -2 3 -3.5
v -2 6 6.5
v -2 6 3.5
v -2 7 6.5
v -2 7 3.5
v -1 1 0.5
v -1 1 -0.5
v -1 2 0.5
v -1 2 -0.5
v -1 5 6.5
v -1 5 3.5
v -1 6 6.5
v -1 6 3.5
v -1 7 6.5
v -1 7 3.5
v -1 8 6.5
v -1 8 3.5
v 2 4 -5.5
v 2 4 -6.5
v 2 5 -5.5
v 2 5 -6.5
v 2 6 -5.5
v 2 6 -6.5
v 2 7 -5.5
v 2 7 -6.5
v 2 8 -5.5
v 2 8 -6.5
v 2 9 -5.5
v 2 9 -6.5
v -2 1 0.5
v -2 1 -0.5
v -2 2 0.5
v -2 2 -0.5
v -2 4 -5.5
v -2 4 -6.5
v -2 5 -5.5
v -2 5 -6.5
v -2 6 -5.5
v -2 6 -6.5
v -2 7 -5.5
v -2 7 -6.5
v -2 8 -5.5
v -2 8 -6.5
v -2 9 -5.5
v -2 9 -6.5
v 1 5 6.5
v 1 5 3.5
v 1 6 6.5
v 1 6 3.5
v 1 7 6.5
v 1 7 3.5
v 1 8 6.5
v 1 8 3.5
v 2 0 2.5
v 2 0 1.5
v 2 0 -1.5
v 2 0 -2.5
v 2 1 -2.5
v 2 1 -3.5
v 2 3 2.5
v 2 3 1.5
v 2 3 -1.5
v 2 3 -2.5
v 2 3 -3.5
v 2 6 6.5
v 2 6 3.5
v 2 7 6.5
v 2 7 3.5
v 3 0 1.5
v 3 0 -1.5
v 3 1 0.5
v 3 1 -0.5
v 3 2 0.5
v 3 2 -0.5
v 3 3 3.5
v 3 3 2.5
v 3 3 1.5
v 3 3 -1.5
v 3 3 -2.5
v 3 3 -3.5
v 3 3 -4.5
v 3 3 -5.5
v 3 3 -6.5
v 3 5 3.5
v 3 5 2.5
v 3 5 1.5
v 3 5 -2.5
v 3 5 -3.5
v 3 5 -4.5
v 3 5 -5.5
v 3 5 -6.5
v 3 8 3.5
v 3 8 2.5
v 3 8 1.5
v 3 8 -2.5
v 3 8 -3.5
v 3 8 -4.5
v 3 8 -5.5
v 3 8 -6.5
v 3 10 3.5
v 3 10 2.5
v 3 10 1.5
v 3 10 -2.5
v 3 10 -3.5
v 3 10 -4.5
v 3 10 -5.5
v 3 10 -6.5
v 4 1 0.5
v 4 1 -0.5
v 4 2 0.5
v 4 2 -0.5
v 4 5 3.5
v 4 5 2.5
v 4 5 1.5
v 4 5 -2.5
v 4 5 -3.5
v 4 5 -4.5
v 4 5 -5.5
v 4 5 -6.5
v 4 8 3.5
v 4 8 2.5
v 4 8 1.5
v 4 8 -2.5
v 4 8 -3.5
v 4 8 -4.5
v 4 8 -5.5
v 4 8 -6.5
v -2 6 6.5
v -2 7 6.5
v -1 5 6.5
v -1 6 6.5
v -1 7 6.5
v -1 8 6.5
v 1 5 6.5
v 1 6 6.5
v 1 7 6.5
v 1 8 6.5
v 2 6 6.5
v 2 7 6.5
v -4 5 3.5
v -4 8 3.5
v -3 3 3.5
v -3 5 3.5
v -3 8 3.5
v -3 10 3.5
v -2 6 3.5
v -2 7 3.5
v -1 5 3.5
v -1 6 3.5
v -1 7 3.5
v -1 8 3.5
v 1 5 3.5
v 1 6 3.5
v 1 7 3.5
v 1 8 3.5
v 2 6 3.5
v 2 7 3.5
v 3 3 3.5
v 3 5 3.5
v 3 8 3.5
v 3 10 3.5
v 4 5 3.5
v 4 8 3.5
v -2 0 2.5
v -2 3 2.5
v 2 0 2.5
v 2 3 2.5
v -3 0 1.5
v -3 3 1.5
v -2 0 1.5
v -2 3 1.5
v 2 0 1.5
v 2 3 1.5
v 3 0 1.5
v 3 3 1.5
v -4 1 0.5
v -4 2 0.5
v -3 1 0.5
v -3 2 0.5
v 3 1 0.5
v 3 2 0.5
v 4 1 0.5
v 4 2 0.5
v -2 1 -0.5
v -2 2 -0.5
v -1 1 -0.5
v -1 2 -0.5
v -2 1 0.5
v -2 2 0.5
v -1 1 0.5
v -1 2 0.5
v -4 1 -0.5
v -4 2 -0.5
v -3 1 -0.5
v -3 2 -0.5
v 3 1 -0.5
v 3 2 -0.5
v 4 1 -0.5
v 4 2 -0.5
v -3 0 -1.5
v -3 3 -1.5
v -2 0 -1.5
v -2 3 -1.5
v 2 0 -1.5
v 2 3 -1.5
v 3 0 -1.5
v 3 3 -1.5
v -2 0 -2.5
v -2 1 -2.5
v 2 0 -2.5
v 2 1 -2.5
v -2 1 -3.5
v -2 3 -3.5
v 2 1 -3.5
v 2 3 -3.5
v -2 4 -5.5
v -2 5 -5.5
v -2 6 -5.5
v -2 7 -5.5
v -2 8 -5.5
v -2 9 -5.5
v 2 4 -5.5
v 2 5 -5.5
v 2 6 -5.5
v 2 7 -5.5
v 2 8 -5.5
v 2 9 -5.5
v -4 5 -6.5
v -4 8 -6.5
v -3 3 -6.5
v -3 5 -6.5
v -3 8 -6.5
v -3 10 -6.5
v -2 4 -6.5
v -2 5 -6.5
v -2 6 -6.5
v -2 7 -6.5
v -2 8 -6.5
v -2 9 -6.5
v 2 4 -6.5
v 2 5 -6.5
v 2 6 -6.5
v 2 7 -6.5
v 2 8 -6.5
v 2 9 -6.5
v 3 3 -6.5
v 3 5 -6.5
v 3 8 -6.5
v 3 10 -6.5
v 4 5 -6.5
v 4 8 -6.5
v -2 0 2.5
v 2 0 2.5
v -3 0 1.5
v -2 0 1.5
v -1 0 1.5
v 1 0 1.5
v 2 0 1.5
v 3 0 1.5
v -1 0 0.5
v 1 0 0.5
v -3 0 -1.5
v -2 0 -1.5
v 2 0 -1.5
v 3 0 -1.5
v -2 0 -2.5
v 2 0 -2.5
v -4 1 0.5
v -3 1 0.5
v 3 1 0.5
v 4 1 0.5
v -4 1 -0.5
v -3 1 -0.5
v 3 1 -0.5
v 4 1 -0.5
v -2 1 -2.5
v 2 1 -2.5
v -2 1 -3.5
v 2 1 -3.5
v -2 2 0.5
v -1 2 0.5
v -2 2 -0.5
v -1 2 -0.5
v -3 3 3.5
v 3 3 3.5
v -3 3 2.5
v -2 3 2.5
v 2 3 2.5
v 3 3 2.5
v -3 3 1.5
v -2 3 1.5
v 2 3 1.5
v 3 3 1.5
v -3 3 -1.5
v -2 3 -1.5
v 2 3 -1.5
v 3 3 -1.5
v -3 3 -2.5
v -2 3 -2.5
v 2 3 -2.5
v 3 3 -2.5
v -3 3 -3.5
v -2 3 -3.5
v 2 3 -3.5
v 3 3 -3.5
v -3 3 -4.5
v 3 3 -4.5
v -3 3 -5.5
v 3 3 -5.5
v -3 3 -6.5
v 3 3 -6.5
v -1 5 6.5
v 1 5 6.5
v -4 5 3.5
v -3 5 3.5
v -1 5 3.5
v 1 5 3.5
v 3 5 3.5
v 4 5 3.5
v -4 5 2.5
v -3 5 2.5
v 3 5 2.5
v 4 5 2.5
v -4 5 1.5
v -3 5 1.5
v 3 5 1.5
v 4 5 1.5
v -4 5 -2.5
v -3 5 -2.5
v 3 5 -2.5
v 4 5 -2.5
v -4 5 -3.5
v -3 5 -3.5
v 3 5 -3.5
v 4 5 -3.5
v -4 5 -4.5
v -3 5 -4.5
v 3 5 -4.5
v 4 5 -4.5
v -4 5 -5.5
v -3 5 -5.5
v -2 5 -5.5
v 2 5 -5.5
v 3 5 -5.5
v 4 5 -5.5
v -4 5 -6.5
v -3 5 -6.5
v -2 5 -6.5
v 2 5 -6.5
v 3 5 -6.5
v 4 5 -6.5
v -2 6 6.5
v -1 6 6.5
v 1 6 6.5
v 2 6 6.5
v -2 6 3.5
v -1 6 3.5
v 1 6 3.5
v 2 6 3.5
v -2 7 -5.5
v 2 7 -5.5
v -2 7 -6.5
v 2 7 -6.5
v -2 9 -5.5
v 2 9 -5.5
v -2 9 -6.5
v 2 9 -6.5
v -2 1 0.5
v -1 1 0.5
v -2 1 -0.5
v -1 1 -0.5
v -4 2 0.5
v -3 2 0.5
v 3 2 0.5
v 4 2 0.5
v -4 2 -0.5
v -3 2 -0.5
v 3 2 -0.5
v 4 2 -0.5
v -2 4 -5.5
v 2 4 -5.5
v -2 4 -6.5
v 2 4 -6.5
v -2 6 -5.5
v 2 6 -5.5
v -2 6 -6.5
v 2 6 -6.5
v -2 7 6.5
v -1 7 6.5
v 1 7 6.5
v 2 7 6.5
v -2 7 3.5
v -1 7 3.5
v 1 7 3.5
v 2 7 3.5
v -1 8 6.5
v 1 8 6.5
v -4 8 3.5
v -3 8 3.5
v -1 8 3.5
v 1 8 3.5
v 3 8 3.5
v 4 8 3.5
v -4 8 2.5
v -3 8 2.5
v 3 8 2.5
v 4 8 2.5
v -4 8 1.5
v -3 8 1.5
v 3 8 1.5
v 4 8 1.5
v -4 8 -2.5
v -3 8 -2.5
v 3 8 -2.5
v 4 8 -2.5
v -4 8 -3.5
v -3 8 -3.5
v 3 8 -3.5
v 4 8 -3.5
v -4 8 -4.5
v -3 8 -4.5
v 3 8 -4.5
v 4 8 -4.5
v -4 8 -5.5
v -3 8 -5.5
v -2 8 -5.5
v 2 8 -5.5
v 3 8 -5.5
v 4 8 -5.5
v -4 8 -6.5
v -3 8 -6.5
v -2 8 -6.5
v 2 8 -6.5
v 3 8 -6.5
v 4 8 -6.5
v -3 10 3.5
v 3 10 3.5
v -3 10 2.5
v 3 10 2.5
v -3 10 1.5
v 3 10 1.5
v -3 10 -2.5
v 3 10 -2.5
v -3 10 -3.5
v 3 10 -3.5
v -3 10 -4.5
v 3 10 -4.5
v -3 10 -5.5
v 3 10 -5.5
v -3 10 -6.5
v 3 10 -6.5

# faces
f 3/4/1 2/4/1 1/4/1
f 4/4/1 2/4/1 3/4/1
f 13/1/1 6/1/1 5/1/1
f 14/2/1 7/2/1 6/2/1
f 14/1/1 6/1/1 13/1/1
f 15/1/1 8/1/1 7/1/1
f 15/2/1 7/2/1 14/2/1
f 16/2/1 9/2/1 8/2/1
f 16/1/1 8/1/1 15/1/1
f 17/1/1 10/1/1 9/1/1
f 17/2/1 9/2/1 16/2/1
f 18/2/1 11/2/1 10/2/1
f 18/1/1 10/1/1 17/1/1
f 19/1/1 12/1/1 11/1/1
f 19/2/1 11/2/1 18/2/1
f 20/1/1 12/1/1 19/1/1
f 23/3/1 22/3/1 21/3/1
f 24/3/1 22/3/1 23/3/1
f 25/3/1 23/3/1 21/3/1
f 26/3/1 22/3/1 24/3/1
f 29/3/1 25/3/1 21/3/1
f 29/3/1 26/3/1 25/3/1
f 30/3/1 22/3/1 26/3/1
f 30/3/1 26/3/1 29/3/1
f 36/1/1 28/1/1 27/1/1
f 37/2/1 29/2/1 28/2/1
f 37/1/1 28/1/1 36/1/1
f 38/1/1 30/1/1 29/1/1
f 38/2/1 29/2/1 37/2/1
f 38/1/1 31/1/1 30/1/1
f 39/2/1 32/2/1 31/2/1
f 39/1/1 31/1/1 38/1/1
f 40/1/1 33/1/1 32/1/1
f 40/2/1 32/2/1 39/2/1
f 41/2/1 34/2/1 33/2/1
f 41/1/1 33/1/1 40/1/1
f 42/1/1 35/1/1 34/1/1
f 42/2/1 34/2/1 41/2/1
f 43/1/1 35/1/1 42/1/1
f 52/1/1 45/1/1 44/1/1
f 53/2/1 46/2/1 45/2/1
f 53/1/1 45/1/1 52/1/1
f 54/1/1 47/1/1 46/1/1
f 54/2/1 46/2/1 53/2/1
f 55/2/1 48/2/1 47/2/1
f 55/1/1 47/1/1 54/1/1
f 56/1/1 49/1/1 48/1/1
f 56/2/1 48/2/1 55/2/1
f 57/2/1 50/2/1 49/2/1
f 57/1/1 49/1/1 56/1/1
f 58/1/1 51/1/1 50/1/1
f 58/2/1 50/2/1 57/2/1
f 59/1/1 51/1/1 58/1/1
f 64/1/1 63/1/1 62/1/1
f 66/1/1 61/1/1 60/1/1
f 67/1/1 61/1/1 66/1/1
f 68/1/1 65/1/1 64/1/1
f 68/1/1 64/1/1 62/1/1
f 69/1/1 65/1/1 68/1/1
f 70/1/1 65/1/1 69/1/1
f 73/4/1 72/4/1 71/4/1
f 74/4/1 72/4/1 73/4/1
f 77/3/1 76/3/1 75/3/1
f 78/3/1 76/3/1 77/3/1
f 81/4/1 80/4/1 79/4/1
f 82/4/1 80/4/1 81/4/1
f 85/4/1 84/4/1 83/4/1
f 86/4/1 84/4/1 85/4/1
f 89/1/1 88/1/1 87/1/1
f 90/1/1 88/1/1 89/1/1
f 93/1/1 92/1/1 91/1/1
f 94/1/1 92/1/1 93/1/1
f 97/1/1 96/1/1 95/1/1
f 98/1/1 96/1/1 97/1/1
f 99/4/2 100/4/2 101/4/2
f 101/4/2 100/4/2 102/4/2
f 103/1/2 104/1/2 105/1/2
f 105/1/2 104/1/2 106/1/2
f 107/1/2 108/1/2 109/1/2
f 109/1/2 108/1/2 110/1/2
f 111/1/2 112/1/2 113/1/2
f 113/1/2 112/1/2 114/1/2
f 115/4/2 116/4/2 117/4/2
f 117/4/2 116/4/2 118/4/2
f 119/4/2 120/4/2 121/4/2
f 121/4/2 120/4/2 122/4/2
f 125/1/2 126/1/2 127/1/2
f 123/1/2 124/1/2 129/1/2
f 129/1/2 124/1/2 130/1/2
f 127/1/2 128/1/2 131/1/2
f 125/1/2 127/1/2 131/1/2
f 131/1/2 128/1/2 132/1/2
f 132/1/2 128/1/2 133/1/2
f 134/4/2 135/4/2 136/4/2
f 136/4/2 135/4/2 137/4/2
f 138/3/2 139/3/2 140/3/2
f 140/3/2 139/3/2 141/3/2
f 138/3/2 140/3/2 142/3/2
f 141/3/2 139/3/2 143/3/2
f 138/3/2 142/3/2 146/3/2
f 142/3/2 143/3/2 146/3/2
f 143/3/2 139/3/2 147/3/2
f 146/3/2 143/3/2 147/3/2
f 144/1/2 145/1/2 153/1/2
f 145/2/2 146/2/2 154/2/2
f 153/1/2 145/1/2 154/1/2
f 146/1/2 147/1/2 155/1/2
f 154/2/2 146/2/2 155/2/2
f 147/1/2 148/1/2 155/1/2
f 148/2/2 149/2/2 156/2/2
f 155/1/2 148/1/2 156/1/2
f 149/1/2 150/1/2 157/1/2
f 156/2/2 149/2/2 157/2/2
f 150/2/2 151/2/2 158/2/2
f 157/1/2 150/1/2 158/1/2
f 151/1/2 152/1/2 159/1/2
f 158/2/2 151/2/2 159/2/2
f 159/1/2 152/1/2 160/1/2
f 161/1/2 162/1/2 169/1/2
f 162/2/2 163/2/2 170/2/2
f 169/1/2 162/1/2 170/1/2
f 163/1/2 164/1/2 171/1/2
f 170/2/2 163/2/2 171/2/2
f 164/2/2 165/2/2 172/2/2
f 171/1/2 164/1/2 172/1/2
f 165/1/2 166/1/2 173/1/2
f 172/2/2 165/2/2 173/2/2
f 166/2/2 167/2/2 174/2/2
f 173/1/2 166/1/2 174/1/2
f 167/1/2 168/1/2 175/1/2
f 174/2/2 167/2/2 175/2/2
f 175/1/2 168/1/2 176/1/2
f 177/4/2 178/4/2 179/4/2
f 179/4/2 178/4/2 180/4/2
f 181/1/2 182/1/2 189/1/2
f 182/2/2 183/2/2 190/2/2
f 189/1/2 182/1/2 190/1/2
f 183/1/2 184/1/2 191/1/2
f 190/2/2 183/2/2 191/2/2
f 184/2/2 185/2/2 192/2/2
f 191/1/2 184/1/2 192/1/2
f 185/1/2 186/1/2 193/1/2
f 192/2/2 185/2/2 193/2/2
f 186/2/2 187/2/2 194/2/2
f 193/1/2 186/1/2 194/1/2
f 187/1/2 188/1/2 195/1/2
f 194/2/2 187/2/2 195/2/2
f 195/1/2 188/1/2 196/1/2
f 200/4/3 198/4/3 197/4/3
f 201/4/3 198/4/3 200/4/3
f 203/4/3 200/4/3 199/4/3
f 204/3/3 201/3/3 200/3/3
f 204/4/3 200/4/3 203/4/3
f 205/4/3 202/4/3 201/4/3
f 205/3/3 201/3/3 204/3/3
f 206/4/3 202/4/3 205/4/3
f 207/4/3 205/4/3 204/4/3
f 208/4/3 205/4/3 207/4/3
f 212/1/3 210/1/3 209/1/3
f 213/1/3 210/1/3 212/1/3
f 215/1/3 212/1/3 211/1/3
f 215/1/3 214/1/3 213/1/3
f 215/1/3 213/1/3 212/1/3
f 216/1/3 214/1/3 215/1/3
f 217/1/3 215/1/3 211/1/3
f 218/1/3 215/1/3 217/1/3
f 219/1/3 214/1/3 216/1/3
f 220/1/3 214/1/3 219/1/3
f 221/1/3 217/1/3 211/1/3
f 224/1/3 214/1/3 220/1/3
f 225/1/3 222/1/3 221/1/3
f 226/1/3 224/1/3 223/1/3
f 227/1/3 225/1/3 221/1/3
f 227/1/3 226/1/3 225/1/3
f 227/1/3 221/1/3 211/1/3
f 228/1/3 226/1/3 227/1/3
f 229/1/3 224/1/3 226/1/3
f 229/1/3 226/1/3 228/1/3
f 229/1/3 214/1/3 224/1/3
f 230/1/3 214/1/3 229/1/3
f 231/1/3 229/1/3 228/1/3
f 232/1/3 229/1/3 231/1/3
f 235/1/3 234/1/3 233/1/3
f 236/1/3 234/1/3 235/1/3
f 239/3/3 238/3/3 237/3/3
f 240/3/3 238/3/3 239/3/3
f 243/3/3 242/3/3 241/3/3
f 244/3/3 242/3/3 243/3/3
f 247/4/3 246/4/3 245/4/3
f 248/4/3 246/4/3 247/4/3
f 251/4/3 250/4/3 249/4/3
f 252/4/3 250/4/3 251/4/3
f 255/3/3 254/3/3 253/3/3
f 256/3/3 254/3/3 255/3/3
f 257/3/4 258/3/4 259/3/4
f 259/3/4 258/3/4 260/3/4
f 261/4/4 262/4/4 263/4/4
f 263/4/4 262/4/4 264/4/4
f 265/4/4 266/4/4 267/4/4
f 267/4/4 266/4/4 268/4/4
f 269/3/4 270/3/4 271/3/4
f 271/3/4 270/3/4 272/3/4
f 273/3/4 274/3/4 275/3/4
f 275/3/4 274/3/4 276/3/4
f 277/1/4 278/1/4 279/1/4
f 279/1/4 278/1/4 280/1/4
f 281/1/4 282/1/4 283/1/4
f 283/1/4 282/1/4 284/1/4
f 285/3/4 286/3/4 291/3/4
f 291/3/4 286/3/4 292/3/4
f 287/3/4 288/3/4 293/3/4
f 293/3/4 288/3/4 294/3/4
f 289/3/4 290/3/4 295/3/4
f 295/3/4 290/3/4 296/3/4
f 297/1/4 298/1/4 300/1/4
f 300/1/4 298/1/4 301/1/4
f 299/1/4 300/1/4 303/1/4
f 301/1/4 302/1/4 303/1/4
f 300/1/4 301/1/4 303/1/4
f 303/1/4 302/1/4 304/1/4
f 304/1/4 302/1/4 305/1/4
f 305/1/4 302/1/4 306/1/4
f 306/1/4 302/1/4 307/1/4
f 307/1/4 302/1/4 308/1/4
f 299/1/4 303/1/4 309/1/4
f 304/1/4 305/1/4 310/1/4
f 310/1/4 305/1/4 311/1/4
f 306/1/4 307/1/4 312/1/4
f 312/1/4 307/1/4 313/1/4
f 308/1/4 302/1/4 314/1/4
f 312/1/4 313/1/4 315/1/4
f 313/1/4 314/1/4 315/1/4
f 310/1/4 311/1/4 315/1/4
f 299/1/4 309/1/4 315/1/4
f 311/1/4 312/1/4 315/1/4
f 309/1/4 310/1/4 315/1/4
f 315/1/4 314/1/4 316/1/4
f 316/1/4 314/1/4 317/1/4
f 314/1/4 302/1/4 318/1/4
f 317/1/4 314/1/4 318/1/4
f 316/1/4 317/1/4 319/1/4
f 319/1/4 317/1/4 320/1/4
f 324/1/5 322/1/5 321/1/5
f 325/1/5 322/1/5 324/1/5
f 326/1/5 322/1/5 325/1/5
f 327/1/5 322/1/5 326/1/5
f 329/3/5 324/3/5 323/3/5
f 329/3/5 325/3/5 324/3/5
f 329/1/5 326/1/5 325/1/5
f 330/3/5 328/3/5 327/3/5
f 330/1/5 326/1/5 329/1/5
f 330/3/5 327/3/5 326/3/5
f 331/3/5 329/3/5 323/3/5
f 331/3/5 330/3/5 329/3/5
f 332/3/5 330/3/5 331/3/5
f 333/3/5 328/3/5 330/3/5
f 333/3/5 330/3/5 332/3/5
f 334/3/5 328/3/5 333/3/5
f 335/1/5 333/1/5 332/1/5
f 336/1/5 333/1/5 335/1/5
f 341/4/5 338/4/5 337/4/5
f 342/4/5 338/4/5 341/4/5
f 343/4/5 340/4/5 339/4/5
f 344/4/5 340/4/5 343/4/5
f 347/1/5 346/1/5 345/1/5
f 348/1/5 346/1/5 347/1/5
f 351/3/5 350/3/5 349/3/5
f 352/3/5 350/3/5 351/3/5
f 355/1/5 354/1/5 353/1/5
f 356/1/5 354/1/5 355/1/5
f 357/1/5 354/1/5 356/1/5
f 358/1/5 354/1/5 357/1/5
f 359/2/5 356/2/5 355/2/5
f 360/2/5 356/2/5 359/2/5
f 361/2/5 358/2/5 357/2/5
f 362/2/5 358/2/5 361/2/5
f 367/1/5 364/1/5 363/1/5
f 368/1/5 364/1/5 367/1/5
f 369/1/5 366/1/5 365/1/5
f 370/1/5 366/1/5 369/1/5
f 371/2/5 368/2/5 367/2/5
f 372/2/5 368/2/5 371/2/5
f 373/2/5 370/2/5 369/2/5
f 374/2/5 370/2/5 373/2/5
f 375/1/5 372/1/5 371/1/5
f 375/1/5 373/1/5 372/1/5
f 375/1/5 374/1/5 373/1/5
f 376/1/5 374/1/5 375/1/5
f 377/2/5 376/2/5 375/2/5
f 378/2/5 376/2/5 377/2/5
f 379/1/5 378/1/5 377/1/5
f 380/1/5 378/1/5 379/1/5
f 385/4/5 382/4/5 381/4/5
f 386/4/5 382/4/5 385/4/5
f 389/1/5 384/1/5 383/1/5
f 390/1/5 384/1/5 389/1/5
f 391/1/5 388/1/5 387/1/5
f 392/1/5 388/1/5 391/1/5
f 393/2/5 390/2/5 389/2/5
f 394/2/5 390/2/5 393/2/5
f 395/2/5 392/2/5 391/2/5
f 396/2/5 392/2/5 395/2/5
f 397/1/5 394/1/5 393/1/5
f 398/1/5 394/1/5 397/1/5
f 399/1/5 396/1/5 395/1/5
f 400/1/5 396/1/5 399/1/5
f 401/2/5 398/2/5 397/2/5
f 402/2/5 398/2/5 401/2/5
f 403/2/5 400/2/5 399/2/5
f 404/2/5 400/2/5 403/2/5
f 405/1/5 402/1/5 401/1/5
f 406/1/5 402/1/5 405/1/5
f 407/1/5 404/1/5 403/1/5
f 408/1/5 404/1/5 407/1/5
f 409/2/5 406/2/5 405/2/5
f 410/2/5 406/2/5 409/2/5
f 413/2/5 408/2/5 407/2/5
f 414/2/5 408/2/5 413/2/5
f 415/1/5 410/1/5 409/1/5
f 416/1/5 410/1/5 415/1/5
f 417/1/5 412/1/5 411/1/5
f 418/1/5 412/1/5 417/1/5
f 419/1/5 414/1/5 413/1/5
f 420/1/5 414/1/5 419/1/5
f 425/4/5 422/4/5 421/4/5
f 426/4/5 422/4/5 425/4/5
f 427/4/5 424/4/5 423/4/5
f 428/4/5 424/4/5 427/4/5
f 431/1/5 430/1/5 429/1/5
f 432/1/5 430/1/5 431/1/5
f 435/1/5 434/1/5 433/1/5
f 436/1/5 434/1/5 435/1/5
f 437/3/6 438/3/6 439/3/6
f 439/3/6 438/3/6 440/3/6
f 441/4/6 442/4/6 445/4/6
f 445/4/6 442/4/6 446/4/6
f 443/4/6 444/4/6 447/4/6
f 447/4/6 444/4/6 448/4/6
f 449/1/6 450/1/6 451/1/6
f 451/1/6 450/1/6 452/1/6
f 453/1/6 454/1/6 455/1/6
f 455/1/6 454/1/6 456/1/6
f 457/4/6 458/4/6 461/4/6
f 461/4/6 458/4/6 462/4/6
f 459/4/6 460/4/6 463/4/6
f 463/4/6 460/4/6 464/4/6
f 465/4/6 466/4/6 469/4/6
f 469/4/6 466/4/6 470/4/6
f 467/1/6 468/1/6 473/1/6
f 473/1/6 468/1/6 474/1/6
f 471/1/6 472/1/6 475/1/6
f 475/1/6 472/1/6 476/1/6
f 473/2/6 474/2/6 477/2/6
f 477/2/6 474/2/6 478/2/6
f 475/2/6 476/2/6 479/2/6
f 479/2/6 476/2/6 480/2/6
f 477/1/6 478/1/6 481/1/6
f 481/1/6 478/1/6 482/1/6
f 479/1/6 480/1/6 483/1/6
f 483/1/6 480/1/6 484/1/6
f 481/2/6 482/2/6 485/2/6
f 485/2/6 482/2/6 486/2/6
f 483/2/6 484/2/6 487/2/6
f 487/2/6 484/2/6 488/2/6
f 485/1/6 486/1/6 489/1/6
f 489/1/6 486/1/6 490/1/6
f 487/1/6 488/1/6 491/1/6
f 491/1/6 488/1/6 492/1/6
f 489/2/6 490/2/6 493/2/6
f 493/2/6 490/2/6 494/2/6
f 491/2/6 492/2/6 497/2/6
f 497/2/6 492/2/6 498/2/6
f 493/1/6 494/1/6 499/1/6
f 499/1/6 494/1/6 500/1/6
f 495/1/6 496/1/6 501/1/6
f 501/1/6 496/1/6 502/1/6
f 497/1/6 498/1/6 503/1/6
f 503/1/6 498/1/6 504/1/6
f 505/1/6 506/1/6 507/1/6
f 507/1/6 506/1/6 508/1/6
f 507/2/6 508/2/6 509/2/6
f 509/2/6 508/2/6 510/2/6
f 509/1/6 510/1/6 511/1/6
f 511/1/6 510/1/6 512/1/6
f 511/2/6 512/2/6 513/2/6
f 513/2/6 512/2/6 514/2/6
f 513/1/6 514/1/6 515/1/6
f 515/1/6 514/1/6 516/1/6
f 515/2/6 516/2/6 517/2/6
f 517/2/6 516/2/6 518/2/6
f 517/1/6 518/1/6 519/1/6
f 519/1/6 518/1/6 520/1/6
