# MagicaVoxel @ Ephtracy

# group
g Tower A Base

# material
mtllib Tower A Base.mtl
usemtl palette

# normals
vn -1 0 0
vn 1 0 0
vn 0 0 1
vn 0 0 -1
vn 0 -1 0
vn 0 1 0

# texcoords
vt 0.318359 0.5
vt 0.568359 0.5
vt 0.576172 0.5
vt 0.580078 0.5
vt 0.587891 0.5
vt 0.658203 0.5

# verts
v -10 0 1
v -10 0 -1
v -10 1 1
v -10 1 -1
v -6 1 1
v -6 1 -1
v -6 2 1
v -6 2 -1
v -5 0 2
v -5 0 1
v -5 0 -1
v -5 0 -2
v -5 2 1
v -5 2 -1
v -5 3 2
v -5 3 -2
v -4 4 2
v -4 4 -2
v -4 5 2
v -4 5 -2
v -4 6 2
v -4 6 -2
v -4 8 2
v -4 8 -2
v -3 0 3
v -3 0 2
v -3 0 -2
v -3 0 -3
v -3 3 3
v -3 3 2
v -3 3 -2
v -3 3 -3
v -3 4 3
v -3 4 2
v -3 4 -2
v -3 4 -3
v -3 5 3
v -3 5 2
v -3 5 -2
v -3 5 -3
v -3 6 3
v -3 6 2
v -3 6 -2
v -3 6 -3
v -3 8 3
v -3 8 2
v -3 8 -2
v -3 8 -3
v -2 0 5
v -2 0 4
v -2 0 3
v -2 0 -3
v -2 0 -4
v -2 0 -5
v -2 3 5
v -2 3 4
v -2 3 3
v -2 3 2
v -2 3 -2
v -2 3 -3
v -2 3 -4
v -2 3 -5
v -2 4 3
v -2 4 2
v -2 4 -2
v -2 4 -3
v -2 5 3
v -2 5 2
v -2 5 -2
v -2 5 -3
v -2 6 3
v -2 6 2
v -2 6 -2
v -2 6 -3
v -2 8 4
v -2 8 3
v -2 8 1
v -2 8 -1
v -2 8 -3
v -2 8 -4
v -2 12 1
v -2 12 -1
v -1 0 10
v -1 0 5
v -1 0 -5
v -1 0 -10
v -1 1 10
v -1 1 6
v -1 1 1
v -1 1 -1
v -1 1 -6
v -1 1 -10
v -1 2 6
v -1 2 5
v -1 2 1
v -1 2 -1
v -1 2 -5
v -1 2 -6
v -1 8 2
v -1 8 1
v -1 8 -1
v -1 8 -2
v -1 12 2
v -1 12 1
v -1 12 -0
v -1 12 -1
v -1 12 -2
v -1 13 1
v -1 13 -0
v -1 13 -1
v 1 1 4
v 1 1 3
v 1 1 1
v 1 1 -1
v 1 1 -3
v 1 1 -4
v 1 2 4
v 1 2 3
v 1 2 1
v 1 2 -1
v 1 2 -3
v 1 2 -4
v 3 1 1
v 3 1 -1
v 3 2 1
v 3 2 -1
v -4 1 1
v -4 1 -1
v -4 2 1
v -4 2 -1
v -1 1 4
v -1 1 3
v -1 1 1
v -1 1 -1
v -1 1 -3
v -1 1 -4
v -1 2 4
v -1 2 3
v -1 2 1
v -1 2 -1
v -1 2 -3
v -1 2 -4
v 1 0 10
v 1 0 5
v 1 0 -5
v 1 0 -10
v 1 1 10
v 1 1 6
v 1 1 1
v 1 1 -1
v 1 1 -6
v 1 1 -10
v 1 2 6
v 1 2 5
v 1 2 1
v 1 2 -1
v 1 2 -5
v 1 2 -6
v 1 8 2
v 1 8 1
v 1 8 -1
v 1 8 -2
v 1 12 2
v 1 12 1
v 1 12 -0
v 1 12 -1
v 1 12 -2
v 1 13 1
v 1 13 -0
v 1 13 -1
v 2 0 5
v 2 0 4
v 2 0 3
v 2 0 -3
v 2 0 -4
v 2 0 -5
v 2 3 5
v 2 3 4
v 2 3 3
v 2 3 2
v 2 3 -2
v 2 3 -3
v 2 3 -4
v 2 3 -5
v 2 4 3
v 2 4 2
v 2 4 -2
v 2 4 -3
v 2 5 3
v 2 5 2
v 2 5 -2
v 2 5 -3
v 2 6 3
v 2 6 2
v 2 6 -2
v 2 6 -3
v 2 8 4
v 2 8 3
v 2 8 1
v 2 8 -1
v 2 8 -3
v 2 8 -4
v 2 12 1
v 2 12 -1
v 3 0 3
v 3 0 2
v 3 0 -2
v 3 0 -3
v 3 3 3
v 3 3 2
v 3 3 -2
v 3 3 -3
v 3 4 3
v 3 4 2
v 3 4 -2
v 3 4 -3
v 3 5 3
v 3 5 2
v 3 5 -2
v 3 5 -3
v 3 6 3
v 3 6 2
v 3 6 -2
v 3 6 -3
v 3 8 3
v 3 8 2
v 3 8 -2
v 3 8 -3
v 4 4 2
v 4 4 -2
v 4 5 2
v 4 5 -2
v 4 6 2
v 4 6 -2
v 4 8 2
v 4 8 -2
v 5 0 2
v 5 0 1
v 5 0 -1
v 5 0 -2
v 5 2 1
v 5 2 -1
v 5 3 2
v 5 3 -2
v 6 1 1
v 6 1 -1
v 6 2 1
v 6 2 -1
v 10 0 1
v 10 0 -1
v 10 1 1
v 10 1 -1
v -1 0 10
v -1 1 10
v 1 0 10
v 1 1 10
v -1 1 6
v -1 2 6
v 1 1 6
v 1 2 6
v -2 0 5
v -2 3 5
v -1 0 5
v -1 2 5
v 1 0 5
v 1 2 5
v 2 0 5
v 2 3 5
v -2 3 4
v -2 8 4
v 2 3 4
v 2 8 4
v -3 0 3
v -3 3 3
v -3 4 3
v -3 5 3
v -3 6 3
v -3 8 3
v -2 0 3
v -2 3 3
v -2 4 3
v -2 5 3
v -2 6 3
v -2 8 3
v 2 0 3
v 2 3 3
v 2 4 3
v 2 5 3
v 2 6 3
v 2 8 3
v 3 0 3
v 3 3 3
v 3 4 3
v 3 5 3
v 3 6 3
v 3 8 3
v -5 0 2
v -5 3 2
v -4 0 2
v -4 3 2
v -4 4 2
v -4 5 2
v -4 6 2
v -4 8 2
v -3 0 2
v -3 3 2
v -3 4 2
v -3 5 2
v -3 6 2
v -3 8 2
v -2 3 2
v -2 4 2
v -2 5 2
v -2 6 2
v -1 8 2
v -1 12 2
v 1 8 2
v 1 12 2
v 2 3 2
v 2 4 2
v 2 5 2
v 2 6 2
v 3 0 2
v 3 3 2
v 3 4 2
v 3 5 2
v 3 6 2
v 3 8 2
v 4 0 2
v 4 3 2
v 4 4 2
v 4 5 2
v 4 6 2
v 4 8 2
v 5 0 2
v 5 3 2
v -10 0 1
v -10 1 1
v -6 1 1
v -6 2 1
v -5 0 1
v -5 2 1
v -2 8 1
v -2 12 1
v -1 1 1
v -1 2 1
v -1 8 1
v -1 12 1
v -1 13 1
v 0 12 1
v 0 13 1
v 1 1 1
v 1 2 1
v 1 8 1
v 1 12 1
v 1 13 1
v 2 8 1
v 2 12 1
v 5 0 1
v 5 2 1
v 6 1 1
v 6 2 1
v 10 0 1
v 10 1 1
v -4 1 -1
v -4 2 -1
v -3 1 -1
v -3 2 -1
v -1 1 -1
v -1 2 -1
v 1 1 -1
v 1 2 -1
v 3 1 -1
v 3 2 -1
v -1 1 -4
v -1 2 -4
v 1 1 -4
v 1 2 -4
v -1 1 4
v -1 2 4
v 1 1 4
v 1 2 4
v -4 1 1
v -4 2 1
v -3 1 1
v -3 2 1
v -1 1 1
v -1 2 1
v 1 1 1
v 1 2 1
v 3 1 1
v 3 2 1
v -10 0 -1
v -10 1 -1
v -6 1 -1
v -6 2 -1
v -5 0 -1
v -5 2 -1
v -2 8 -1
v -2 12 -1
v -1 1 -1
v -1 2 -1
v -1 8 -1
v -1 12 -1
v -1 13 -1
v 0 12 -1
v 0 13 -1
v 1 1 -1
v 1 2 -1
v 1 8 -1
v 1 12 -1
v 1 13 -1
v 2 8 -1
v 2 12 -1
v 5 0 -1
v 5 2 -1
v 6 1 -1
v 6 2 -1
v 10 0 -1
v 10 1 -1
v -5 0 -2
v -5 3 -2
v -4 0 -2
v -4 3 -2
v -4 4 -2
v -4 5 -2
v -4 6 -2
v -4 8 -2
v -3 0 -2
v -3 3 -2
v -3 4 -2
v -3 5 -2
v -3 6 -2
v -3 8 -2
v -2 3 -2
v -2 4 -2
v -2 5 -2
v -2 6 -2
v -1 8 -2
v -1 12 -2
v 1 8 -2
v 1 12 -2
v 2 3 -2
v 2 4 -2
v 2 5 -2
v 2 6 -2
v 3 0 -2
v 3 3 -2
v 3 4 -2
v 3 5 -2
v 3 6 -2
v 3 8 -2
v 4 0 -2
v 4 3 -2
v 4 4 -2
v 4 5 -2
v 4 6 -2
v 4 8 -2
v 5 0 -2
v 5 3 -2
v -3 0 -3
v -3 3 -3
v -3 4 -3
v -3 5 -3
v -3 6 -3
v -3 8 -3
v -2 0 -3
v -2 3 -3
v -2 4 -3
v -2 5 -3
v -2 6 -3
v -2 8 -3
v 2 0 -3
v 2 3 -3
v 2 4 -3
v 2 5 -3
v 2 6 -3
v 2 8 -3
v 3 0 -3
v 3 3 -3
v 3 4 -3
v 3 5 -3
v 3 6 -3
v 3 8 -3
v -2 3 -4
v -2 8 -4
v 2 3 -4
v 2 8 -4
v -2 0 -5
v -2 3 -5
v -1 0 -5
v -1 2 -5
v 1 0 -5
v 1 2 -5
v 2 0 -5
v 2 3 -5
v -1 1 -6
v -1 2 -6
v 1 1 -6
v 1 2 -6
v -1 0 -10
v -1 1 -10
v 1 0 -10
v 1 1 -10
v -1 0 10
v 1 0 10
v -2 0 5
v -1 0 5
v 1 0 5
v 2 0 5
v -2 0 4
v -1 0 4
v 1 0 4
v 2 0 4
v -3 0 3
v -2 0 3
v -1 0 3
v 1 0 3
v 2 0 3
v 3 0 3
v -5 0 2
v -4 0 2
v -3 0 2
v -2 0 2
v 2 0 2
v 3 0 2
v 4 0 2
v 5 0 2
v -10 0 1
v -5 0 1
v -4 0 1
v -3 0 1
v -1 0 1
v 1 0 1
v 3 0 1
v 4 0 1
v 5 0 1
v 10 0 1
v -10 0 -1
v -5 0 -1
v -4 0 -1
v -3 0 -1
v -1 0 -1
v 1 0 -1
v 3 0 -1
v 4 0 -1
v 5 0 -1
v 10 0 -1
v -5 0 -2
v -4 0 -2
v -3 0 -2
v -2 0 -2
v 2 0 -2
v 3 0 -2
v 4 0 -2
v 5 0 -2
v -3 0 -3
v -2 0 -3
v -1 0 -3
v 1 0 -3
v 2 0 -3
v 3 0 -3
v -2 0 -4
v -1 0 -4
v 1 0 -4
v 2 0 -4
v -2 0 -5
v -1 0 -5
v 1 0 -5
v 2 0 -5
v -1 0 -10
v 1 0 -10
v -1 2 4
v 1 2 4
v -1 2 3
v 1 2 3
v -4 2 1
v -3 2 1
v -1 2 1
v 1 2 1
v 3 2 1
v -4 2 -1
v -3 2 -1
v -1 2 -1
v 1 2 -1
v 3 2 -1
v -1 2 -3
v 1 2 -3
v -1 2 -4
v 1 2 -4
v -3 4 3
v -2 4 3
v 2 4 3
v 3 4 3
v -4 4 2
v -3 4 2
v -2 4 2
v 2 4 2
v 3 4 2
v 4 4 2
v -4 4 -2
v -3 4 -2
v -2 4 -2
v 2 4 -2
v 3 4 -2
v 4 4 -2
v -3 4 -3
v -2 4 -3
v 2 4 -3
v 3 4 -3
v -3 6 3
v -2 6 3
v 2 6 3
v 3 6 3
v -4 6 2
v -3 6 2
v -2 6 2
v 2 6 2
v 3 6 2
v 4 6 2
v -4 6 -2
v -3 6 -2
v -2 6 -2
v 2 6 -2
v 3 6 -2
v 4 6 -2
v -3 6 -3
v -2 6 -3
v 2 6 -3
v 3 6 -3
v -1 1 10
v 1 1 10
v -1 1 6
v 1 1 6
v -1 1 4
v 1 1 4
v -1 1 3
v 1 1 3
v -10 1 1
v -6 1 1
v -4 1 1
v -3 1 1
v -1 1 1
v 1 1 1
v 3 1 1
v 6 1 1
v 10 1 1
v -10 1 -1
v -6 1 -1
v -4 1 -1
v -3 1 -1
v -1 1 -1
v 1 1 -1
v 3 1 -1
v 6 1 -1
v 10 1 -1
v -1 1 -3
v 1 1 -3
v -1 1 -4
v 1 1 -4
v -1 1 -6
v 1 1 -6
v -1 1 -10
v 1 1 -10
v -1 2 6
v 1 2 6
v -1 2 5
v 1 2 5
v -6 2 1
v -5 2 1
v 5 2 1
v 6 2 1
v -6 2 -1
v -5 2 -1
v 5 2 -1
v 6 2 -1
v -1 2 -5
v 1 2 -5
v -1 2 -6
v 1 2 -6
v -2 3 5
v 2 3 5
v -2 3 4
v 2 3 4
v -3 3 3
v -2 3 3
v 2 3 3
v 3 3 3
v -5 3 2
v -4 3 2
v -3 3 2
v -2 3 2
v 2 3 2
v 3 3 2
v 4 3 2
v 5 3 2
v -5 3 -2
v -4 3 -2
v -3 3 -2
v -2 3 -2
v 2 3 -2
v 3 3 -2
v 4 3 -2
v 5 3 -2
v -3 3 -3
v -2 3 -3
v 2 3 -3
v 3 3 -3
v -2 3 -4
v 2 3 -4
v -2 3 -5
v 2 3 -5
v -3 5 3
v -2 5 3
v 2 5 3
v 3 5 3
v -4 5 2
v -3 5 2
v -2 5 2
v 2 5 2
v 3 5 2
v 4 5 2
v -4 5 -2
v -3 5 -2
v -2 5 -2
v 2 5 -2
v 3 5 -2
v 4 5 -2
v -3 5 -3
v -2 5 -3
v 2 5 -3
v 3 5 -3
v -2 8 4
v 2 8 4
v -3 8 3
v -2 8 3
v 2 8 3
v 3 8 3
v -4 8 2
v -3 8 2
v -1 8 2
v 1 8 2
v 3 8 2
v 4 8 2
v -2 8 1
v -1 8 1
v 1 8 1
v 2 8 1
v -2 8 -1
v -1 8 -1
v 1 8 -1
v 2 8 -1
v -4 8 -2
v -3 8 -2
v -1 8 -2
v 1 8 -2
v 3 8 -2
v 4 8 -2
v -3 8 -3
v -2 8 -3
v 2 8 -3
v 3 8 -3
v -2 8 -4
v 2 8 -4
v -1 12 2
v 1 12 2
v -2 12 1
v -1 12 1
v 0 12 1
v 1 12 1
v 2 12 1
v -1 12 -0
v 1 12 -0
v -2 12 -1
v -1 12 -1
v 0 12 -1
v 1 12 -1
v 2 12 -1
v -1 12 -2
v 1 12 -2
v -1 13 1
v 0 13 1
v 1 13 1
v -1 13 -0
v 0 13 -0
v 1 13 -0
v -1 13 -1
v 0 13 -1
v 1 13 -1

# faces
f 3/3/1 2/3/1 1/3/1
f 4/3/1 2/3/1 3/3/1
f 7/3/1 6/3/1 5/3/1
f 8/3/1 6/3/1 7/3/1
f 13/6/1 10/6/1 9/6/1
f 14/6/1 12/6/1 11/6/1
f 15/6/1 13/6/1 9/6/1
f 15/6/1 14/6/1 13/6/1
f 16/6/1 12/6/1 14/6/1
f 16/6/1 14/6/1 15/6/1
f 19/1/1 18/1/1 17/1/1
f 20/1/1 18/1/1 19/1/1
f 23/1/1 22/1/1 21/1/1
f 24/1/1 22/1/1 23/1/1
f 29/1/1 26/1/1 25/1/1
f 30/1/1 26/1/1 29/1/1
f 31/1/1 28/1/1 27/1/1
f 32/1/1 28/1/1 31/1/1
f 34/5/1 31/5/1 30/5/1
f 35/5/1 31/5/1 34/5/1
f 37/1/1 34/1/1 33/1/1
f 38/1/1 34/1/1 37/1/1
f 39/1/1 36/1/1 35/1/1
f 40/1/1 36/1/1 39/1/1
f 42/5/1 39/5/1 38/5/1
f 43/5/1 39/5/1 42/5/1
f 45/1/1 42/1/1 41/1/1
f 46/1/1 42/1/1 45/1/1
f 47/1/1 44/1/1 43/1/1
f 48/1/1 44/1/1 47/1/1
f 55/6/1 50/6/1 49/6/1
f 56/1/1 51/1/1 50/1/1
f 56/6/1 50/6/1 55/6/1
f 57/1/1 51/1/1 56/1/1
f 60/1/1 53/1/1 52/1/1
f 61/6/1 54/6/1 53/6/1
f 61/1/1 53/1/1 60/1/1
f 62/6/1 54/6/1 61/6/1
f 63/5/1 58/5/1 57/5/1
f 63/1/1 57/1/1 56/1/1
f 64/5/1 58/5/1 63/5/1
f 65/5/1 60/5/1 59/5/1
f 66/1/1 61/1/1 60/1/1
f 66/5/1 60/5/1 65/5/1
f 67/1/1 63/1/1 56/1/1
f 70/1/1 61/1/1 66/1/1
f 71/5/1 68/5/1 67/5/1
f 71/1/1 67/1/1 56/1/1
f 72/5/1 68/5/1 71/5/1
f 73/5/1 70/5/1 69/5/1
f 74/1/1 61/1/1 70/1/1
f 74/5/1 70/5/1 73/5/1
f 75/1/1 71/1/1 56/1/1
f 76/1/1 71/1/1 75/1/1
f 79/1/1 61/1/1 74/1/1
f 80/1/1 61/1/1 79/1/1
f 81/3/1 78/3/1 77/3/1
f 82/3/1 78/3/1 81/3/1
f 87/3/1 84/3/1 83/3/1
f 88/3/1 84/3/1 87/3/1
f 91/3/1 86/3/1 85/3/1
f 92/3/1 86/3/1 91/3/1
f 93/3/1 84/3/1 88/3/1
f 94/3/1 84/3/1 93/3/1
f 95/4/1 90/4/1 89/4/1
f 96/4/1 90/4/1 95/4/1
f 97/3/1 91/3/1 85/3/1
f 98/3/1 91/3/1 97/3/1
f 103/3/1 100/3/1 99/3/1
f 104/3/1 100/3/1 103/3/1
f 106/3/1 102/3/1 101/3/1
f 107/3/1 102/3/1 106/3/1
f 108/2/1 105/2/1 104/2/1
f 109/3/1 106/3/1 105/3/1
f 109/2/1 105/2/1 108/2/1
f 110/3/1 106/3/1 109/3/1
f 117/1/1 112/1/1 111/1/1
f 118/5/1 113/5/1 112/5/1
f 118/1/1 112/1/1 117/1/1
f 119/5/1 113/5/1 118/5/1
f 120/5/1 115/5/1 114/5/1
f 121/1/1 116/1/1 115/1/1
f 121/5/1 115/5/1 120/5/1
f 122/1/1 116/1/1 121/1/1
f 125/3/1 124/3/1 123/3/1
f 126/3/1 124/3/1 125/3/1
f 127/3/2 128/3/2 129/3/2
f 129/3/2 128/3/2 130/3/2
f 131/1/2 132/1/2 137/1/2
f 132/5/2 133/5/2 138/5/2
f 137/1/2 132/1/2 138/1/2
f 138/5/2 133/5/2 139/5/2
f 134/5/2 135/5/2 140/5/2
f 135/1/2 136/1/2 141/1/2
f 140/5/2 135/5/2 141/5/2
f 141/1/2 136/1/2 142/1/2
f 143/3/2 144/3/2 147/3/2
f 147/3/2 144/3/2 148/3/2
f 145/3/2 146/3/2 151/3/2
f 151/3/2 146/3/2 152/3/2
f 148/3/2 144/3/2 153/3/2
f 153/3/2 144/3/2 154/3/2
f 149/4/2 150/4/2 155/4/2
f 155/4/2 150/4/2 156/4/2
f 145/3/2 151/3/2 157/3/2
f 157/3/2 151/3/2 158/3/2
f 159/3/2 160/3/2 163/3/2
f 163/3/2 160/3/2 164/3/2
f 161/3/2 162/3/2 166/3/2
f 166/3/2 162/3/2 167/3/2
f 164/3/2 165/3/2 168/3/2
f 165/2/2 166/2/2 169/2/2
f 168/3/2 165/3/2 169/3/2
f 169/2/2 166/2/2 170/2/2
f 171/6/2 172/6/2 177/6/2
f 172/1/2 173/1/2 178/1/2
f 177/6/2 172/6/2 178/6/2
f 178/1/2 173/1/2 179/1/2
f 174/1/2 175/1/2 182/1/2
f 175/6/2 176/6/2 183/6/2
f 182/1/2 175/1/2 183/1/2
f 183/6/2 176/6/2 184/6/2
f 179/5/2 180/5/2 185/5/2
f 178/1/2 179/1/2 185/1/2
f 185/5/2 180/5/2 186/5/2
f 181/5/2 182/5/2 187/5/2
f 182/1/2 183/1/2 188/1/2
f 187/5/2 182/5/2 188/5/2
f 178/1/2 185/1/2 189/1/2
f 188/1/2 183/1/2 192/1/2
f 189/5/2 190/5/2 193/5/2
f 178/1/2 189/1/2 193/1/2
f 193/5/2 190/5/2 194/5/2
f 191/5/2 192/5/2 195/5/2
f 192/1/2 183/1/2 196/1/2
f 195/5/2 192/5/2 196/5/2
f 178/1/2 193/1/2 197/1/2
f 197/1/2 193/1/2 198/1/2
f 196/1/2 183/1/2 201/1/2
f 201/1/2 183/1/2 202/1/2
f 199/3/2 200/3/2 203/3/2
f 203/3/2 200/3/2 204/3/2
f 205/1/2 206/1/2 209/1/2
f 209/1/2 206/1/2 210/1/2
f 207/1/2 208/1/2 211/1/2
f 211/1/2 208/1/2 212/1/2
f 210/5/2 211/5/2 214/5/2
f 214/5/2 211/5/2 215/5/2
f 213/1/2 214/1/2 217/1/2
f 217/1/2 214/1/2 218/1/2
f 215/1/2 216/1/2 219/1/2
f 219/1/2 216/1/2 220/1/2
f 218/5/2 219/5/2 222/5/2
f 222/5/2 219/5/2 223/5/2
f 221/1/2 222/1/2 225/1/2
f 225/1/2 222/1/2 226/1/2
f 223/1/2 224/1/2 227/1/2
f 227/1/2 224/1/2 228/1/2
f 229/1/2 230/1/2 231/1/2
f 231/1/2 230/1/2 232/1/2
f 233/1/2 234/1/2 235/1/2
f 235/1/2 234/1/2 236/1/2
f 237/6/2 238/6/2 241/6/2
f 239/6/2 240/6/2 242/6/2
f 237/6/2 241/6/2 243/6/2
f 241/6/2 242/6/2 243/6/2
f 242/6/2 240/6/2 244/6/2
f 243/6/2 242/6/2 244/6/2
f 245/3/2 246/3/2 247/3/2
f 247/3/2 246/3/2 248/3/2
f 249/3/2 250/3/2 251/3/2
f 251/3/2 250/3/2 252/3/2
f 255/3/3 254/3/3 253/3/3
f 256/3/3 254/3/3 255/3/3
f 259/3/3 258/3/3 257/3/3
f 260/3/3 258/3/3 259/3/3
f 263/6/3 262/6/3 261/6/3
f 264/6/3 262/6/3 263/6/3
f 266/6/3 262/6/3 264/6/3
f 267/6/3 266/6/3 265/6/3
f 268/6/3 262/6/3 266/6/3
f 268/6/3 266/6/3 267/6/3
f 271/1/3 270/1/3 269/1/3
f 272/1/3 270/1/3 271/1/3
f 279/1/3 274/1/3 273/1/3
f 280/1/3 274/1/3 279/1/3
f 281/1/3 276/1/3 275/1/3
f 282/1/3 276/1/3 281/1/3
f 283/1/3 278/1/3 277/1/3
f 284/1/3 278/1/3 283/1/3
f 291/1/3 286/1/3 285/1/3
f 292/1/3 286/1/3 291/1/3
f 293/1/3 288/1/3 287/1/3
f 294/1/3 288/1/3 293/1/3
f 295/1/3 290/1/3 289/1/3
f 296/1/3 290/1/3 295/1/3
f 299/6/3 298/6/3 297/6/3
f 300/6/3 298/6/3 299/6/3
f 305/1/3 300/1/3 299/1/3
f 306/1/3 300/1/3 305/1/3
f 307/1/3 302/1/3 301/1/3
f 308/1/3 302/1/3 307/1/3
f 309/1/3 304/1/3 303/1/3
f 310/1/3 304/1/3 309/1/3
f 311/5/3 307/5/3 306/5/3
f 312/5/3 307/5/3 311/5/3
f 313/5/3 309/5/3 308/5/3
f 314/5/3 309/5/3 313/5/3
f 317/3/3 316/3/3 315/3/3
f 318/3/3 316/3/3 317/3/3
f 324/5/3 320/5/3 319/5/3
f 325/5/3 320/5/3 324/5/3
f 326/5/3 322/5/3 321/5/3
f 327/5/3 322/5/3 326/5/3
f 329/1/3 324/1/3 323/1/3
f 330/1/3 324/1/3 329/1/3
f 331/1/3 326/1/3 325/1/3
f 332/1/3 326/1/3 331/1/3
f 333/1/3 328/1/3 327/1/3
f 334/1/3 328/1/3 333/1/3
f 335/6/3 330/6/3 329/6/3
f 336/6/3 330/6/3 335/6/3
f 339/3/3 338/3/3 337/3/3
f 341/3/3 339/3/3 337/3/3
f 341/3/3 340/3/3 339/3/3
f 342/3/3 340/3/3 341/3/3
f 347/3/3 344/3/3 343/3/3
f 348/3/3 344/3/3 347/3/3
f 350/2/3 349/2/3 348/2/3
f 351/2/3 349/2/3 350/2/3
f 352/4/3 346/4/3 345/4/3
f 353/4/3 346/4/3 352/4/3
f 355/3/3 351/3/3 350/3/3
f 356/3/3 351/3/3 355/3/3
f 357/3/3 355/3/3 354/3/3
f 358/3/3 355/3/3 357/3/3
f 361/3/3 360/3/3 359/3/3
f 362/3/3 360/3/3 361/3/3
f 363/3/3 361/3/3 359/3/3
f 364/3/3 361/3/3 363/3/3
f 367/1/3 366/1/3 365/1/3
f 368/1/3 366/1/3 367/1/3
f 369/5/3 368/5/3 367/5/3
f 370/5/3 368/5/3 369/5/3
f 373/5/3 372/5/3 371/5/3
f 374/5/3 372/5/3 373/5/3
f 377/3/3 376/3/3 375/3/3
f 378/3/3 376/3/3 377/3/3
f 379/3/4 380/3/4 381/3/4
f 381/3/4 380/3/4 382/3/4
f 383/1/4 384/1/4 385/1/4
f 385/1/4 384/1/4 386/1/4
f 385/5/4 386/5/4 387/5/4
f 387/5/4 386/5/4 388/5/4
f 389/5/4 390/5/4 391/5/4
f 391/5/4 390/5/4 392/5/4
f 393/3/4 394/3/4 395/3/4
f 393/3/4 395/3/4 397/3/4
f 395/3/4 396/3/4 397/3/4
f 397/3/4 396/3/4 398/3/4
f 399/3/4 400/3/4 403/3/4
f 403/3/4 400/3/4 404/3/4
f 404/3/4 405/3/4 406/3/4
f 406/3/4 405/3/4 407/3/4
f 401/4/4 402/4/4 408/4/4
f 408/4/4 402/4/4 409/4/4
f 406/2/4 407/2/4 411/2/4
f 411/2/4 407/2/4 412/2/4
f 410/3/4 411/3/4 413/3/4
f 413/3/4 411/3/4 414/3/4
f 415/3/4 416/3/4 417/3/4
f 417/3/4 416/3/4 418/3/4
f 415/3/4 417/3/4 419/3/4
f 419/3/4 417/3/4 420/3/4
f 421/6/4 422/6/4 423/6/4
f 423/6/4 422/6/4 424/6/4
f 423/1/4 424/1/4 429/1/4
f 429/1/4 424/1/4 430/1/4
f 425/1/4 426/1/4 431/1/4
f 431/1/4 426/1/4 432/1/4
f 427/1/4 428/1/4 433/1/4
f 433/1/4 428/1/4 434/1/4
f 430/5/4 431/5/4 435/5/4
f 435/5/4 431/5/4 436/5/4
f 432/5/4 433/5/4 437/5/4
f 437/5/4 433/5/4 438/5/4
f 439/3/4 440/3/4 441/3/4
f 441/3/4 440/3/4 442/3/4
f 443/5/4 444/5/4 448/5/4
f 448/5/4 444/5/4 449/5/4
f 445/5/4 446/5/4 450/5/4
f 450/5/4 446/5/4 451/5/4
f 447/1/4 448/1/4 453/1/4
f 453/1/4 448/1/4 454/1/4
f 449/1/4 450/1/4 455/1/4
f 455/1/4 450/1/4 456/1/4
f 451/1/4 452/1/4 457/1/4
f 457/1/4 452/1/4 458/1/4
f 453/6/4 454/6/4 459/6/4
f 459/6/4 454/6/4 460/6/4
f 461/1/4 462/1/4 467/1/4
f 467/1/4 462/1/4 468/1/4
f 463/1/4 464/1/4 469/1/4
f 469/1/4 464/1/4 470/1/4
f 465/1/4 466/1/4 471/1/4
f 471/1/4 466/1/4 472/1/4
f 473/1/4 474/1/4 479/1/4
f 479/1/4 474/1/4 480/1/4
f 475/1/4 476/1/4 481/1/4
f 481/1/4 476/1/4 482/1/4
f 477/1/4 478/1/4 483/1/4
f 483/1/4 478/1/4 484/1/4
f 485/1/4 486/1/4 487/1/4
f 487/1/4 486/1/4 488/1/4
f 489/6/4 490/6/4 491/6/4
f 491/6/4 490/6/4 492/6/4
f 492/6/4 490/6/4 494/6/4
f 493/6/4 494/6/4 495/6/4
f 494/6/4 490/6/4 496/6/4
f 495/6/4 494/6/4 496/6/4
f 497/3/4 498/3/4 499/3/4
f 499/3/4 498/3/4 500/3/4
f 501/3/4 502/3/4 503/3/4
f 503/3/4 502/3/4 504/3/4
f 508/3/5 506/3/5 505/3/5
f 509/3/5 506/3/5 508/3/5
f 511/6/5 508/6/5 507/6/5
f 512/3/5 509/3/5 508/3/5
f 512/6/5 508/6/5 511/6/5
f 513/6/5 510/6/5 509/6/5
f 513/3/5 509/3/5 512/3/5
f 514/6/5 510/6/5 513/6/5
f 516/1/5 512/1/5 511/1/5
f 517/3/5 513/3/5 512/3/5
f 517/1/5 512/1/5 516/1/5
f 518/1/5 514/1/5 513/1/5
f 518/3/5 513/3/5 517/3/5
f 519/1/5 514/1/5 518/1/5
f 523/1/5 516/1/5 515/1/5
f 524/5/5 517/5/5 516/5/5
f 524/1/5 516/1/5 523/1/5
f 525/5/5 519/5/5 518/5/5
f 525/1/5 520/1/5 519/1/5
f 526/1/5 520/1/5 525/1/5
f 530/6/5 522/6/5 521/6/5
f 531/1/5 523/1/5 522/1/5
f 531/6/5 522/6/5 530/6/5
f 532/5/5 524/5/5 523/5/5
f 532/1/5 523/1/5 531/1/5
f 533/5/5 517/5/5 524/5/5
f 533/5/5 524/5/5 532/5/5
f 533/3/5 518/3/5 517/3/5
f 534/5/5 525/5/5 518/5/5
f 534/3/5 518/3/5 533/3/5
f 534/5/5 526/5/5 525/5/5
f 535/1/5 527/1/5 526/1/5
f 535/5/5 526/5/5 534/5/5
f 536/6/5 528/6/5 527/6/5
f 536/1/5 527/1/5 535/1/5
f 537/6/5 528/6/5 536/6/5
f 539/3/5 532/3/5 531/3/5
f 539/3/5 538/3/5 537/3/5
f 539/3/5 537/3/5 536/3/5
f 539/3/5 536/3/5 535/3/5
f 539/3/5 534/3/5 533/3/5
f 539/3/5 533/3/5 532/3/5
f 539/3/5 535/3/5 534/3/5
f 539/3/5 531/3/5 530/3/5
f 539/3/5 530/3/5 529/3/5
f 540/3/5 538/3/5 539/3/5
f 541/3/5 538/3/5 540/3/5
f 542/3/5 538/3/5 541/3/5
f 543/3/5 538/3/5 542/3/5
f 544/3/5 538/3/5 543/3/5
f 545/3/5 538/3/5 544/3/5
f 546/3/5 538/3/5 545/3/5
f 547/3/5 538/3/5 546/3/5
f 548/3/5 538/3/5 547/3/5
f 549/6/5 541/6/5 540/6/5
f 550/1/5 542/1/5 541/1/5
f 550/6/5 541/6/5 549/6/5
f 551/5/5 543/5/5 542/5/5
f 551/1/5 542/1/5 550/1/5
f 552/5/5 543/5/5 551/5/5
f 553/5/5 545/5/5 544/5/5
f 554/1/5 546/1/5 545/1/5
f 554/5/5 545/5/5 553/5/5
f 555/6/5 547/6/5 546/6/5
f 555/1/5 546/1/5 554/1/5
f 556/6/5 547/6/5 555/6/5
f 557/1/5 552/1/5 551/1/5
f 558/5/5 543/5/5 552/5/5
f 558/1/5 552/1/5 557/1/5
f 559/3/5 544/3/5 543/3/5
f 559/5/5 543/5/5 558/5/5
f 560/5/5 553/5/5 544/5/5
f 560/3/5 544/3/5 559/3/5
f 561/1/5 554/1/5 553/1/5
f 561/5/5 553/5/5 560/5/5
f 562/1/5 554/1/5 561/1/5
f 563/1/5 559/1/5 558/1/5
f 564/3/5 560/3/5 559/3/5
f 564/1/5 559/1/5 563/1/5
f 565/1/5 561/1/5 560/1/5
f 565/3/5 560/3/5 564/3/5
f 566/1/5 561/1/5 565/1/5
f 567/6/5 564/6/5 563/6/5
f 568/3/5 565/3/5 564/3/5
f 568/6/5 564/6/5 567/6/5
f 569/6/5 566/6/5 565/6/5
f 569/3/5 565/3/5 568/3/5
f 570/6/5 566/6/5 569/6/5
f 571/3/5 569/3/5 568/3/5
f 572/3/5 569/3/5 571/3/5
f 575/1/5 574/1/5 573/1/5
f 576/1/5 574/1/5 575/1/5
f 579/5/5 576/5/5 575/5/5
f 580/5/5 576/5/5 579/5/5
f 582/1/5 578/1/5 577/1/5
f 583/5/5 579/5/5 578/5/5
f 583/1/5 578/1/5 582/1/5
f 584/5/5 579/5/5 583/5/5
f 585/5/5 581/5/5 580/5/5
f 586/5/5 581/5/5 585/5/5
f 587/5/5 585/5/5 584/5/5
f 588/5/5 585/5/5 587/5/5
f 589/1/5 588/1/5 587/1/5
f 590/1/5 588/1/5 589/1/5
f 596/1/5 592/1/5 591/1/5
f 597/1/5 592/1/5 596/1/5
f 598/1/5 594/1/5 593/1/5
f 599/1/5 594/1/5 598/1/5
f 601/1/5 596/1/5 595/1/5
f 602/1/5 596/1/5 601/1/5
f 605/1/5 600/1/5 599/1/5
f 606/1/5 600/1/5 605/1/5
f 607/1/5 603/1/5 602/1/5
f 608/1/5 603/1/5 607/1/5
f 609/1/5 605/1/5 604/1/5
f 610/1/5 605/1/5 609/1/5
f 616/1/5 612/1/5 611/1/5
f 617/1/5 612/1/5 616/1/5
f 618/1/5 614/1/5 613/1/5
f 619/1/5 614/1/5 618/1/5
f 621/1/5 616/1/5 615/1/5
f 622/1/5 616/1/5 621/1/5
f 625/1/5 620/1/5 619/1/5
f 626/1/5 620/1/5 625/1/5
f 627/1/5 623/1/5 622/1/5
f 628/1/5 623/1/5 627/1/5
f 629/1/5 625/1/5 624/1/5
f 630/1/5 625/1/5 629/1/5
f 631/3/6 632/3/6 633/3/6
f 633/3/6 632/3/6 634/3/6
f 635/3/6 636/3/6 637/3/6
f 637/3/6 636/3/6 638/3/6
f 637/3/6 638/3/6 643/3/6
f 643/3/6 638/3/6 644/3/6
f 639/3/6 640/3/6 648/3/6
f 648/3/6 640/3/6 649/3/6
f 641/3/6 642/3/6 650/3/6
f 642/3/6 643/3/6 650/3/6
f 650/3/6 643/3/6 651/3/6
f 651/3/6 643/3/6 652/3/6
f 644/3/6 645/3/6 653/3/6
f 653/3/6 645/3/6 654/3/6
f 646/3/6 647/3/6 655/3/6
f 655/3/6 647/3/6 656/3/6
f 652/3/6 653/3/6 657/3/6
f 657/3/6 653/3/6 658/3/6
f 657/3/6 658/3/6 659/3/6
f 659/3/6 658/3/6 660/3/6
f 661/3/6 662/3/6 663/3/6
f 663/3/6 662/3/6 664/3/6
f 665/3/6 666/3/6 667/3/6
f 667/3/6 666/3/6 668/3/6
f 669/3/6 670/3/6 673/3/6
f 673/3/6 670/3/6 674/3/6
f 671/3/6 672/3/6 675/3/6
f 675/3/6 672/3/6 676/3/6
f 677/3/6 678/3/6 679/3/6
f 679/3/6 678/3/6 680/3/6
f 681/6/6 682/6/6 683/6/6
f 683/6/6 682/6/6 684/6/6
f 685/1/6 686/1/6 691/1/6
f 691/1/6 686/1/6 692/1/6
f 687/1/6 688/1/6 693/1/6
f 693/1/6 688/1/6 694/1/6
f 689/6/6 690/6/6 697/6/6
f 690/1/6 691/1/6 698/1/6
f 697/6/6 690/6/6 698/6/6
f 698/1/6 691/1/6 699/1/6
f 694/1/6 695/1/6 702/1/6
f 695/6/6 696/6/6 703/6/6
f 702/1/6 695/1/6 703/1/6
f 703/6/6 696/6/6 704/6/6
f 699/1/6 700/1/6 705/1/6
f 705/1/6 700/1/6 706/1/6
f 701/1/6 702/1/6 707/1/6
f 707/1/6 702/1/6 708/1/6
f 709/6/6 710/6/6 711/6/6
f 711/6/6 710/6/6 712/6/6
f 713/1/6 714/1/6 718/1/6
f 718/1/6 714/1/6 719/1/6
f 715/1/6 716/1/6 720/1/6
f 720/1/6 716/1/6 721/1/6
f 717/1/6 718/1/6 723/1/6
f 723/1/6 718/1/6 724/1/6
f 721/1/6 722/1/6 727/1/6
f 727/1/6 722/1/6 728/1/6
f 724/1/6 725/1/6 729/1/6
f 729/1/6 725/1/6 730/1/6
f 726/1/6 727/1/6 731/1/6
f 731/1/6 727/1/6 732/1/6
f 733/1/6 734/1/6 736/1/6
f 736/1/6 734/1/6 737/1/6
f 735/1/6 736/1/6 740/1/6
f 737/1/6 738/1/6 740/1/6
f 736/1/6 737/1/6 740/1/6
f 740/1/6 738/1/6 741/1/6
f 741/1/6 738/1/6 742/1/6
f 742/1/6 738/1/6 743/1/6
f 739/1/6 740/1/6 745/1/6
f 740/1/6 741/1/6 745/1/6
f 745/1/6 741/1/6 746/1/6
f 743/1/6 744/1/6 747/1/6
f 742/1/6 743/1/6 747/1/6
f 747/1/6 744/1/6 748/1/6
f 739/1/6 745/1/6 749/1/6
f 748/1/6 744/1/6 752/1/6
f 749/1/6 750/1/6 753/1/6
f 739/1/6 749/1/6 753/1/6
f 753/1/6 750/1/6 754/1/6
f 754/1/6 750/1/6 755/1/6
f 751/1/6 752/1/6 756/1/6
f 752/1/6 744/1/6 757/1/6
f 756/1/6 752/1/6 757/1/6
f 757/1/6 744/1/6 758/1/6
f 754/1/6 755/1/6 759/1/6
f 755/1/6 756/1/6 759/1/6
f 756/1/6 757/1/6 759/1/6
f 759/1/6 757/1/6 760/1/6
f 760/1/6 757/1/6 761/1/6
f 761/1/6 757/1/6 762/1/6
f 760/1/6 761/1/6 763/1/6
f 763/1/6 761/1/6 764/1/6
f 765/3/6 766/3/6 768/3/6
f 768/3/6 766/3/6 769/3/6
f 769/3/6 766/3/6 770/3/6
f 767/3/6 768/3/6 772/3/6
f 770/3/6 771/3/6 773/3/6
f 767/3/6 772/3/6 774/3/6
f 774/3/6 772/3/6 775/3/6
f 773/3/6 771/3/6 777/3/6
f 777/3/6 771/3/6 778/3/6
f 775/3/6 776/3/6 779/3/6
f 776/3/6 777/3/6 779/3/6
f 779/3/6 777/3/6 780/3/6
f 781/2/6 782/2/6 784/2/6
f 782/3/6 783/3/6 785/3/6
f 784/2/6 782/2/6 785/2/6
f 785/3/6 783/3/6 786/3/6
f 784/3/6 785/3/6 787/3/6
f 785/2/6 786/2/6 788/2/6
f 787/3/6 785/3/6 788/3/6
f 788/2/6 786/2/6 789/2/6
